<svg width="359" height="346" viewBox="0 0 359 346" fill="none" xmlns="http://www.w3.org/2000/svg">
<path d="M346.491 8.25647H273.586C271.21 8.25647 269.284 10.1836 269.284 12.5609V113.571C269.284 115.948 271.21 117.875 273.586 117.875H346.491C348.867 117.875 350.793 115.948 350.793 113.571V12.5609C350.793 10.1836 348.867 8.25647 346.491 8.25647Z" fill="white"/>
<path d="M325.431 33.3287C325.431 36.6851 324.355 39.7892 322.537 42.3135C319.742 46.2087 315.185 48.7397 310.035 48.7397C304.885 48.7397 300.321 46.2087 297.533 42.3135C295.716 39.7892 294.64 36.6851 294.64 33.3287C294.64 24.8259 301.53 17.9244 310.035 17.9244C318.54 17.9244 325.431 24.8259 325.431 33.3287Z" fill="white"/>
<path d="M316.34 29.5843C316.34 30.9584 315.899 32.2298 315.155 33.2631C314.011 34.8577 312.145 35.8944 310.036 35.8944C307.927 35.8944 306.059 34.8577 304.917 33.2631C304.173 32.2298 303.732 30.9584 303.732 29.5843C303.732 26.1026 306.554 23.2767 310.036 23.2767C313.518 23.2767 316.34 26.1026 316.34 29.5843Z" fill="#DEDEFC"/>
<path d="M322.538 42.3137C319.743 46.2088 315.186 48.7399 310.036 48.7399C304.885 48.7399 300.322 46.2088 297.533 42.3137C300.329 38.4261 304.885 35.895 310.036 35.895C315.186 35.895 319.743 38.4261 322.538 42.3137Z" fill="#DEDEFC"/>
<path d="M287.376 56.9413H277.686C277.218 56.9413 276.838 57.3212 276.838 57.79V67.4906C276.838 67.9594 277.218 68.3393 277.686 68.3393H287.376C287.845 68.3393 288.225 67.9594 288.225 67.4906V57.79C288.225 57.3212 287.845 56.9413 287.376 56.9413Z" fill="#4B5C76"/>
<path d="M281.925 64.4283C281.8 64.4283 281.68 64.3781 281.593 64.2904L280.222 62.9197C280.038 62.7359 280.038 62.4377 280.222 62.2531C280.403 62.0693 280.703 62.0693 280.886 62.2531L281.922 63.2889L284.173 60.9942C284.356 60.8088 284.654 60.8054 284.839 60.9884C285.025 61.1705 285.027 61.4687 284.846 61.6541L282.261 64.2879C282.172 64.379 282.066 64.44 281.925 64.4291V64.4283Z" fill="white"/>
<path d="M304.363 95.3112L305.554 97.7245L308.215 98.1112C308.609 98.1689 308.767 98.6534 308.481 98.9324L306.555 100.811L307.01 103.463C307.078 103.857 306.666 104.156 306.312 103.97L303.931 102.718L301.55 103.97C301.197 104.156 300.785 103.856 300.852 103.463L301.307 100.811L299.381 98.9324C299.096 98.6542 299.254 98.1689 299.648 98.1112L302.309 97.7245L303.5 95.3112C303.676 94.9537 304.186 94.9537 304.362 95.3112H304.363Z" fill="#4C91FF"/>
<path d="M316.575 95.3112L317.766 97.7245L320.428 98.1112C320.823 98.1689 320.979 98.6534 320.694 98.9324L318.768 100.811L319.223 103.463C319.291 103.857 318.878 104.156 318.525 103.97L316.144 102.718L313.763 103.97C313.41 104.156 312.997 103.856 313.065 103.463L313.52 100.811L311.594 98.9324C311.308 98.6542 311.466 98.1689 311.86 98.1112L314.522 97.7245L315.712 95.3112C315.888 94.9537 316.399 94.9537 316.575 95.3112H316.575Z" fill="#4C91FF"/>
<path d="M328.788 95.3112L329.979 97.7245L332.64 98.1112C333.034 98.1689 333.192 98.6534 332.906 98.9324L330.98 100.811L331.435 103.463C331.503 103.857 331.091 104.156 330.737 103.97L328.356 102.718L325.975 103.97C325.622 104.156 325.21 103.856 325.277 103.463L325.732 100.811L323.806 98.9324C323.521 98.6542 323.679 98.1689 324.073 98.1112L326.734 97.7245L327.925 95.3112C328.101 94.9537 328.611 94.9537 328.787 95.3112H328.788Z" fill="#4C91FF"/>
<path d="M219.1 1.65674H151.806C149.613 1.65674 147.835 3.43581 147.835 5.6304V98.8666C147.835 101.061 149.613 102.84 151.806 102.84H219.1C221.294 102.84 223.072 101.061 223.072 98.8666V5.6304C223.072 3.43581 221.294 1.65674 219.1 1.65674Z" fill="white"/>
<path d="M199.661 24.7994C199.661 27.8977 198.668 30.7628 196.991 33.0926C194.41 36.6878 190.205 39.0243 185.45 39.0243C180.696 39.0243 176.484 36.6878 173.91 33.0926C172.232 30.7628 171.239 27.8968 171.239 24.7994C171.239 16.9507 177.599 10.5804 185.449 10.5804C193.3 10.5804 199.661 16.9507 199.661 24.7994H199.661Z" fill="white"/>
<path d="M191.27 21.3427C191.27 22.6116 190.863 23.7844 190.176 24.7392C189.119 26.211 187.398 27.1683 185.451 27.1683C183.504 27.1683 181.779 26.2119 180.725 24.7392C180.038 23.7853 179.632 22.6116 179.632 21.3427C179.632 18.1292 182.237 15.5205 185.451 15.5205C188.665 15.5205 191.27 18.1292 191.27 21.3427Z" fill="#DEDEFC"/>
<path d="M196.991 33.0934C194.41 36.6887 190.205 39.0251 185.45 39.0251C180.695 39.0251 176.483 36.6887 173.909 33.0934C176.49 29.5049 180.695 27.1684 185.45 27.1684C190.205 27.1684 194.41 29.5049 196.991 33.0934Z" fill="#DEDEFC"/>
<path d="M164.535 46.5947H155.59C155.158 46.5947 154.807 46.9455 154.807 47.3783V56.3321C154.807 56.7649 155.158 57.1157 155.59 57.1157H164.535C164.968 57.1157 165.318 56.7649 165.318 56.3321V47.3783C165.318 46.9455 164.968 46.5947 164.535 46.5947Z" fill="#4B5C76"/>
<path d="M164.535 61.7911H155.59C155.158 61.7911 154.807 62.1419 154.807 62.5747V71.5286C154.807 71.9613 155.158 72.3121 155.59 72.3121H164.535C164.968 72.3121 165.318 71.9613 165.318 71.5286V62.5747C165.318 62.1419 164.968 61.7911 164.535 61.7911Z" fill="#4B5C76"/>
<path d="M159.503 53.5423C159.379 53.5423 159.258 53.4922 159.171 53.4045L157.905 52.1381C157.721 51.9543 157.721 51.6561 157.905 51.4715C158.086 51.2877 158.386 51.2877 158.57 51.4715L159.5 52.4021L161.552 50.3096C161.735 50.1233 162.033 50.1208 162.218 50.3029C162.403 50.4858 162.406 50.784 162.225 50.9695L159.839 53.4011C159.75 53.4922 159.645 53.5281 159.503 53.5423Z" fill="white"/>
<path d="M159.503 68.7385C159.379 68.7385 159.258 68.6883 159.171 68.6006L157.905 67.3343C157.721 67.1505 157.721 66.8523 157.905 66.6685C158.086 66.4847 158.386 66.4847 158.57 66.6685L159.5 67.5991L161.552 65.5066C161.735 65.3211 162.033 65.3186 162.218 65.4999C162.403 65.6828 162.406 65.981 162.225 66.1657L159.839 68.5973C159.75 68.6884 159.645 68.7284 159.503 68.7385Z" fill="white"/>
<path d="M168.942 82.0128L170.041 84.2406L172.498 84.5982C172.862 84.6508 173.007 85.0985 172.744 85.3558L170.967 87.09L171.387 89.5383C171.449 89.9008 171.069 90.1782 170.742 90.0069L168.545 88.8508L166.348 90.0069C166.022 90.1782 165.641 89.9017 165.703 89.5383L166.123 87.09L164.345 85.3558C164.082 85.0985 164.228 84.6508 164.592 84.5982L167.049 84.2406L168.148 82.0128C168.31 81.6829 168.781 81.6829 168.944 82.0128H168.942Z" fill="#4C91FF"/>
<path d="M180.215 82.0128L181.313 84.2406L183.771 84.5982C184.135 84.6508 184.28 85.0985 184.017 85.3558L182.239 87.09L182.659 89.5383C182.721 89.9008 182.341 90.1782 182.015 90.0069L179.817 88.8508L177.62 90.0069C177.294 90.1782 176.914 89.9017 176.975 89.5383L177.395 87.09L175.618 85.3558C175.354 85.0985 175.5 84.6508 175.864 84.5982L178.321 84.2406L179.42 82.0128C179.583 81.6829 180.054 81.6829 180.216 82.0128H180.215Z" fill="#4C91FF"/>
<path d="M287.439 75.2231H201.685C198.89 75.2231 196.624 77.4902 196.624 80.2869V199.1C196.624 201.897 198.89 204.164 201.685 204.164H287.439C290.234 204.164 292.5 201.897 292.5 199.1V80.2869C292.5 77.4902 290.234 75.2231 287.439 75.2231Z" fill="white"/>
<path d="M262.669 104.715C262.669 108.663 261.403 112.315 259.266 115.284C255.978 119.865 250.619 122.843 244.56 122.843C238.501 122.843 233.134 119.866 229.853 115.284C227.716 112.315 226.45 108.663 226.45 104.715C226.45 94.714 234.555 86.5963 244.56 86.5963C254.564 86.5963 262.669 94.714 262.669 104.715Z" fill="white"/>
<path d="M251.975 100.311C251.975 101.927 251.457 103.423 250.582 104.639C249.235 106.515 247.041 107.734 244.56 107.734C242.079 107.734 239.881 106.514 238.538 104.639C237.663 103.423 237.145 101.927 237.145 100.311C237.145 96.2153 240.463 92.8916 244.56 92.8916C248.657 92.8916 251.975 96.2153 251.975 100.311Z" fill="#DEDEFC"/>
<path d="M259.265 115.284C255.978 119.865 250.618 122.843 244.559 122.843C238.5 122.843 233.133 119.866 229.853 115.284C233.14 110.711 238.5 107.733 244.559 107.733C250.618 107.733 255.977 110.711 259.265 115.284Z" fill="#DEDEFC"/>
<path d="M217.905 132.49H206.507C205.956 132.49 205.509 132.937 205.509 133.489V144.899C205.509 145.45 205.956 145.897 206.507 145.897H217.905C218.456 145.897 218.903 145.45 218.903 144.899V133.489C218.903 132.937 218.456 132.49 217.905 132.49Z" fill="#4B5C76"/>
<path d="M217.905 151.854H206.507C205.956 151.854 205.509 152.301 205.509 152.852V164.263C205.509 164.814 205.956 165.261 206.507 165.261H217.905C218.456 165.261 218.903 164.814 218.903 164.263V152.852C218.903 152.301 218.456 151.854 217.905 151.854Z" fill="#4B5C76"/>
<path d="M211.493 141.214C211.368 141.214 211.248 141.164 211.161 141.076L209.548 139.462C209.364 139.278 209.364 138.98 209.548 138.795C209.731 138.611 210.028 138.612 210.212 138.795L211.49 140.073L214.195 137.314C214.378 137.128 214.676 137.126 214.862 137.307C215.047 137.49 215.049 137.787 214.868 137.973L211.829 141.072C211.74 141.163 211.589 141.198 211.493 141.213V141.214Z" fill="white"/>
<path d="M211.493 160.578C211.368 160.578 211.248 160.528 211.161 160.44L209.548 158.827C209.364 158.643 209.364 158.345 209.548 158.16C209.731 157.976 210.028 157.976 210.212 158.16L211.49 159.437L214.195 156.678C214.378 156.493 214.676 156.49 214.862 156.671C215.047 156.854 215.049 157.152 214.868 157.338L211.829 160.436C211.74 160.527 211.589 160.561 211.493 160.577V160.578Z" fill="white"/>
<path d="M223.522 177.623L224.922 180.462L228.053 180.917C228.517 180.985 228.702 181.555 228.366 181.883L226.101 184.092L226.636 187.212C226.715 187.675 226.23 188.027 225.815 187.809L223.015 186.336L220.215 187.809C219.8 188.027 219.315 187.674 219.394 187.212L219.929 184.092L217.663 181.883C217.328 181.555 217.513 180.985 217.977 180.917L221.108 180.462L222.508 177.623C222.716 177.202 223.315 177.202 223.523 177.623H223.522Z" fill="#4C91FF"/>
<path d="M237.888 177.623L239.288 180.462L242.418 180.917C242.883 180.985 243.068 181.555 242.732 181.883L240.466 184.092L241.002 187.212C241.081 187.675 240.596 188.027 240.181 187.809L237.381 186.336L234.581 187.809C234.166 188.027 233.681 187.674 233.76 187.212L234.295 184.092L232.029 181.883C231.694 181.555 231.879 180.985 232.343 180.917L235.474 180.462L236.874 177.623C237.082 177.202 237.681 177.202 237.888 177.623H237.888Z" fill="#4C91FF"/>
<path d="M252.252 177.623L253.653 180.462L256.783 180.917C257.248 180.985 257.433 181.555 257.097 181.883L254.831 184.092L255.367 187.212C255.446 187.675 254.961 188.027 254.546 187.809L251.746 186.336L248.946 187.809C248.531 188.027 248.046 187.674 248.125 187.212L248.66 184.092L246.394 181.883C246.059 181.555 246.244 180.985 246.708 180.917L249.839 180.462L251.239 177.623C251.447 177.202 252.046 177.202 252.253 177.623H252.252Z" fill="#4C91FF"/>
<path d="M266.617 177.623L268.017 180.462L271.148 180.917C271.612 180.985 271.798 181.555 271.462 181.883L269.196 184.092L269.731 187.212C269.811 187.675 269.326 188.027 268.911 187.809L266.111 186.336L263.31 187.809C262.895 188.027 262.41 187.674 262.49 187.212L263.025 184.092L260.759 181.883C260.423 181.555 260.609 180.985 261.073 180.917L264.204 180.462L265.604 177.623C265.812 177.202 266.411 177.202 266.618 177.623H266.617Z" fill="#4C91FF"/>
<g opacity="0.05">
<path d="M99.4813 42.9618C99.4813 46.9581 98.9436 50.8198 97.9217 54.4927C97.9217 54.4927 97.9217 54.5061 97.9084 54.5061C97.6529 55.4216 97.3707 56.3229 97.0476 57.2243V57.2376C91.1709 73.9492 75.249 85.9237 56.5427 85.9237C55.5342 85.9237 54.539 85.8836 53.5572 85.8159C53.194 85.8025 52.8308 85.7625 52.4676 85.7224C50.4105 85.5336 48.3792 85.1978 46.4164 84.7133C45.8379 84.5788 45.2735 84.4301 44.7225 84.2823L44.7083 84.2689C41.656 83.3943 38.7372 82.1964 36.008 80.6895C35.4837 80.4072 34.9728 80.1248 34.4618 79.8149C33.6821 79.3438 32.9148 78.8593 32.1759 78.3347C31.9205 78.1601 31.6516 77.9713 31.3962 77.7968C30.7099 77.2855 30.0378 76.7743 29.3791 76.2364C29.0969 76.0075 28.8281 75.7786 28.5592 75.5497C19.4015 67.665 13.6049 55.9863 13.6049 42.961C13.6041 19.241 32.8205 0 56.5427 0C78.4624 0 96.5634 16.456 99.159 37.7009C99.1991 38.01 99.2392 38.3333 99.2801 38.6565C99.4145 40.0691 99.4813 41.5092 99.4813 42.9618Z" fill="#1C2844"/>
</g>
<path d="M145.798 242.596V334.547C137.957 334.466 130.171 333.565 122.573 331.493C107.135 327.268 92.5976 317.015 85.4035 303.089C83.3463 299.12 81.8936 294.855 81.194 290.347C80.0644 283.135 78.3704 275.372 73.8654 269.626C69.3738 263.894 63.255 259.683 57.5937 255.095C57.0285 254.637 56.4774 254.18 55.9256 253.709V242.595H145.797L145.798 242.596Z" fill="white"/>
<path d="M85.4044 242.596V303.089C83.3473 299.12 81.8946 294.855 81.195 290.347C80.0654 283.135 78.3714 275.372 73.8664 269.626C69.3748 263.894 63.2559 259.683 57.5946 255.095C57.0294 254.637 56.4784 254.18 55.9266 253.709V242.595H85.4044V242.596Z" fill="#4B5C76"/>
<path d="M164.508 345.185C163.108 345.104 161.949 341.509 161.687 340.13C161.426 338.753 161.314 337.086 161.307 335.923L161.321 335.921C161.292 331.582 162.913 324.848 163.467 322.678C163.584 322.189 163.992 321.8 164.474 321.713L180.566 321.849C184.712 321.713 186.885 323.255 188.777 325.735C189.437 326.6 191.223 329.332 191.223 329.332C191.5 329.878 191.953 330.269 192.535 330.466C195.977 331.643 208.537 336.185 211.789 340.764C211.839 340.835 211.887 340.92 211.932 341.018C212.874 343.038 211.15 345.314 208.926 345.185H164.507H164.508Z" fill="white"/>
<path d="M135.521 345.185C134.121 345.104 132.961 341.509 132.7 340.13C132.439 338.753 132.327 337.086 132.319 335.923L132.334 335.921C132.304 331.582 133.926 324.848 134.48 322.678C134.597 322.189 135.005 321.8 135.487 321.713L151.578 321.849C155.724 321.713 157.898 323.255 159.79 325.735C160.45 326.6 162.236 329.332 162.236 329.332C162.513 329.878 162.965 330.269 163.548 330.466C166.99 331.643 179.549 336.185 182.802 340.764C182.852 340.835 182.9 340.92 182.945 341.018C183.886 343.038 182.162 345.314 179.938 345.185H135.519H135.521Z" fill="white"/>
<path d="M172.16 208.065C177.898 211.417 182.239 215.083 183.696 218.932C184.222 220.324 184.723 221.806 185.204 223.363C191.925 245.387 188.186 295.299 185.181 314.644C184.455 319.257 169.53 316.695 164.314 315.64C163.239 315.427 162.44 314.56 162.297 313.484L159.333 239.998C136.038 239.098 104.098 232.889 96.1102 220.416L107.209 189.954C107.209 189.954 153.966 197.447 172.159 208.064L172.16 208.065Z" fill="#4B5C76"/>
<path d="M121.892 101.905C111.81 94.1751 98.3198 98.3475 98.3198 98.3475L98.708 212.063C111.409 198.938 128.436 191.529 149.536 206.022C136.892 180.201 119.05 141.136 124.873 122.874C124.873 122.874 126.381 105.348 121.892 101.906V101.905Z" fill="white"/>
<path d="M143.834 210.882C149.572 214.235 153.913 217.901 155.37 221.75C155.896 223.142 156.397 224.624 156.878 226.181C163.599 248.205 159.86 298.117 156.855 317.462C156.128 322.075 141.204 319.513 135.988 318.458C134.913 318.245 134.114 317.378 133.971 316.302L131.007 242.815C118.774 242.343 104.66 242.363 94.0127 242.487C85.1863 242.591 78.1717 235.099 78.8371 226.292L81.2132 194.832C81.2132 194.832 125.639 200.265 143.833 210.882L143.834 210.882Z" fill="#4B5C76"/>
<path d="M110.957 153.652C110.394 169.32 113.12 205.368 101.239 215.579C94.928 221.034 79.9778 215.638 75.9337 208.346C72.5708 202.313 63.686 127.833 78.212 107.103C81.4263 102.516 98.7759 98.2315 98.7759 98.2315C98.7759 98.2315 102.809 106.695 104.38 110.83C108.217 120.968 111.357 142.831 110.957 153.651V153.652Z" fill="#4C91FF"/>
<path d="M133.09 137.985C133.09 137.985 157.474 181.859 157.37 196.43C157.341 201.395 154.007 214.839 149.06 214.484C132.483 213.297 128.572 168.682 125.268 152.393C118.943 121.384 121.89 101.908 121.89 101.908C121.89 101.908 135.668 107.14 139.297 110.342C145.356 115.708 160.762 127.862 160.762 127.862L174.842 111.915L190.016 117.146C190.016 117.146 173.89 149.127 161.831 152.413C153.864 154.583 133.09 137.987 133.09 137.987V137.985Z" fill="#4C91FF"/>
<path d="M147.065 124.732L139.576 191.932C139.44 193.157 138.336 194.039 137.112 193.903L93.4211 189.028C92.1972 188.891 91.3155 187.787 91.4516 186.563L98.9413 119.363C99.0774 118.138 100.181 117.256 101.405 117.392L145.096 122.267C146.32 122.404 147.201 123.508 147.065 124.732Z" fill="white"/>
<path d="M92.1353 139.015L92.7147 155.224L123.478 164.919L119.018 180.297C94.7602 180.337 72.4447 171.986 70.5479 169.361C64.1661 160.528 71.215 117.192 77.019 109.018" fill="#4C91FF"/>
<path d="M189.62 114.113L188.865 115.372L187.102 118.248C185.695 118.47 183.932 118.529 182.228 118.336C181.339 118.248 180.48 118.084 179.68 117.847C175.932 116.721 174.94 114.201 174.777 112.764L175.947 111.415C181.395 97.5431 194.708 88.1949 206.62 80.829C208.28 80.5474 207.909 83.8679 206.976 85.2462L206.857 85.4091L200.228 92.1159L198.82 93.835C198.82 93.835 202.835 93.5535 202.094 97.0218C202.094 97.0218 205.472 97.8221 203.739 100.712C208.746 103.988 198.895 112.318 189.621 114.112L189.62 114.113Z" fill="white"/>
<path d="M189.103 105.07C192.656 98.9165 190.09 96.7413 190.09 96.7413C190.09 96.7413 192.425 93.8294 193.064 92.766C194.29 90.7253 193.828 87.9127 193.032 87.4341C190.167 85.7116 178.598 105.821 178.598 105.821" fill="white"/>
<path d="M198.819 93.8361C198.819 93.8361 197.097 97.1449 195.934 98.509L198.819 93.8361Z" fill="white"/>
<path d="M142.881 172.32C142.881 172.32 149.257 176.186 142.807 176.885C142.807 176.885 147.297 181.087 141.251 180.621C145.826 185.828 129.474 185.038 121.814 179.524L119.77 179.954L118.718 180.177C117.829 179.524 117.118 175.937 117.415 172.543C117.489 171.639 117.637 170.78 117.845 169.979C118.215 168.601 118.793 167.577 119.459 166.836C121.207 166.54 122.689 166.199 124.14 165.902C125.311 165.665 126.451 165.458 127.71 165.354C130.614 162.656 136.764 157.437 139.116 159.815C140.203 160.915 135.48 166.637 135.48 166.637C137.406 166.993 139.55 166.811 142.216 167.627C150.411 170.709 142.881 172.32 142.881 172.32Z" fill="white"/>
<path d="M131.902 74.5626C131.902 85.1362 125.769 90.3921 118.064 90.6377V108.553L103.407 97.4072V78.7351C103.163 77.447 103.039 76.0562 103.039 74.5626C103.039 69.7979 104.266 65.4416 106.33 62.0468L130.92 61.3919C131.533 65.0123 131.901 69.7979 131.901 74.5626H131.902Z" fill="white"/>
<path d="M105.794 77.0359C103.344 77.0359 101.361 75.052 101.361 72.5995C101.361 70.1469 103.344 68.1822 105.794 68.1822C108.244 68.1822 110.228 70.1661 110.228 72.5995" fill="white"/>
<path d="M51.2163 104.245L52.3918 111.493C52.4385 111.779 52.1597 112.01 51.8867 111.911L45.4189 109.558C42.6237 111.209 39.3777 112.148 35.9071 112.148C25.5137 112.148 17.1274 103.739 17.1274 93.3776C17.1274 83.0162 25.9245 74.1617 36.666 74.5843C46.4107 74.9678 54.4105 83.0905 54.6785 92.8446C54.7954 97.1031 53.5063 101.053 51.2154 104.246L51.2163 104.245Z" fill="white"/>
<path d="M49.0473 93.3716C49.0473 100.616 43.1615 106.506 35.903 106.506C28.6446 106.506 22.7762 100.616 22.7762 93.3716C22.7762 86.1268 28.6438 80.2202 35.903 80.2202C43.1623 80.2202 49.0473 86.1084 49.0473 93.3716Z" fill="#4C91FF"/>
<path d="M35.0053 95.8753C34.8834 95.8753 34.7648 95.8277 34.6772 95.7417L32.5799 93.7001C32.3938 93.5189 32.3896 93.2206 32.5708 93.0335C32.7519 92.8472 33.05 92.8439 33.237 93.0243L34.9944 94.7351L38.576 90.9945C38.7572 90.8065 39.0528 90.8007 39.2423 90.9803C39.4301 91.1607 39.4368 91.4589 39.2565 91.6469L35.3467 95.7291C35.2599 95.8202 35.1405 95.872 35.0144 95.8745H35.0069L35.0053 95.8753Z" fill="white"/>
<path d="M346.506 144.434L317.766 138.524L358.537 128.867L346.506 144.434Z" fill="white"/>
<path d="M358.54 128.864L336.627 142.398L334.528 152.622L327.531 140.528L358.54 128.864Z" fill="#4C91FF"/>
<path d="M342.045 143.516L334.524 152.619L336.622 142.401L342.045 143.516Z" fill="white"/>
<path d="M247.972 222.426L247.932 222.265C247.864 222.022 247.608 221.861 247.367 221.928C247.112 221.995 246.964 222.25 247.031 222.507L247.071 222.681C247.421 223.933 247.891 225.171 248.483 226.368C248.564 226.529 248.738 226.623 248.913 226.623C248.981 226.623 249.048 226.61 249.115 226.57C249.357 226.462 249.451 226.18 249.33 225.938C248.766 224.807 248.308 223.623 247.972 222.426Z" fill="#1C2844"/>
<path d="M253.216 280.498C252.128 281.265 250.997 282.005 249.868 282.705C249.639 282.84 249.572 283.135 249.72 283.351C249.801 283.499 249.962 283.58 250.11 283.58C250.203 283.58 250.284 283.553 250.365 283.513C251.508 282.786 252.651 282.046 253.754 281.279C253.969 281.131 254.023 280.835 253.875 280.62C253.727 280.405 253.432 280.351 253.216 280.499V280.498Z" fill="#1C2844"/>
<path d="M259.591 275.627C258.582 276.488 257.534 277.336 256.471 278.143C256.255 278.304 256.215 278.601 256.376 278.803C256.471 278.924 256.605 278.991 256.753 278.991C256.846 278.991 256.954 278.964 257.035 278.897C258.111 278.076 259.173 277.215 260.195 276.354C260.396 276.178 260.424 275.883 260.249 275.695C260.087 275.493 259.792 275.466 259.59 275.627H259.591Z" fill="#1C2844"/>
<path d="M275.634 257.139C275.405 257.005 275.109 257.086 274.988 257.314C274.316 258.458 273.617 259.602 272.877 260.718C272.729 260.934 272.796 261.229 273.011 261.364C273.092 261.417 273.187 261.445 273.267 261.445C273.428 261.445 273.576 261.377 273.67 261.243C274.41 260.113 275.122 258.942 275.795 257.785C275.929 257.556 275.848 257.261 275.634 257.139Z" fill="#1C2844"/>
<path d="M9.38099 115.148C9.23321 114.933 8.93767 114.893 8.72227 115.054C7.64611 115.875 6.5975 116.735 5.57561 117.638C5.38777 117.799 5.36022 118.109 5.53554 118.298C5.62988 118.405 5.7643 118.459 5.89871 118.459C6.00641 118.459 6.11411 118.419 6.20762 118.338C7.20279 117.463 8.23804 116.602 9.30084 115.808C9.50205 115.647 9.54295 115.351 9.38099 115.149V115.148Z" fill="#1C2844"/>
<path d="M268.48 239.702C268.52 239.447 268.359 239.204 268.103 239.163C266.813 238.921 265.521 238.599 264.257 238.181C264.002 238.101 263.746 238.235 263.665 238.49C263.585 238.732 263.719 239.001 263.961 239.082C265.266 239.513 266.596 239.849 267.928 240.091H268.022C268.237 240.091 268.438 239.93 268.479 239.701L268.48 239.702Z" fill="#1C2844"/>
<path d="M270.578 264.002C269.784 265.064 268.937 266.114 268.09 267.137C267.914 267.339 267.942 267.635 268.144 267.796C268.225 267.877 268.332 267.917 268.439 267.917C268.574 267.917 268.708 267.849 268.803 267.741C269.677 266.706 270.524 265.642 271.331 264.566C271.492 264.351 271.438 264.055 271.237 263.907C271.022 263.746 270.726 263.786 270.578 264.002H270.578Z" fill="#1C2844"/>
<path d="M265.413 270.124C264.499 271.106 263.544 272.048 262.577 272.963C262.388 273.138 262.374 273.434 262.562 273.622C262.657 273.73 262.778 273.77 262.899 273.77C263.02 273.77 263.141 273.73 263.222 273.649C264.204 272.721 265.172 271.765 266.1 270.783C266.275 270.582 266.275 270.285 266.086 270.11C265.885 269.936 265.589 269.936 265.414 270.124H265.413Z" fill="#1C2844"/>
<path d="M257.156 234.697C256.941 234.549 256.645 234.603 256.498 234.818C256.35 235.033 256.403 235.329 256.619 235.477C257.735 236.23 258.931 236.93 260.169 237.535C260.236 237.562 260.304 237.575 260.371 237.575C260.545 237.575 260.72 237.481 260.801 237.32C260.909 237.077 260.815 236.808 260.586 236.687C259.39 236.095 258.232 235.436 257.157 234.696L257.156 234.697Z" fill="#1C2844"/>
<path d="M251.414 229.288C251.253 229.086 250.957 229.046 250.755 229.194C250.553 229.355 250.513 229.65 250.661 229.853C251.482 230.929 252.409 231.952 253.418 232.907C253.511 232.988 253.619 233.028 253.741 233.028C253.863 233.028 253.996 232.988 254.091 232.88C254.265 232.692 254.252 232.395 254.064 232.221C253.082 231.306 252.195 230.324 251.415 229.288H251.414Z" fill="#1C2844"/>
<path d="M278.552 250.143C278.041 251.354 277.476 252.578 276.885 253.776C276.764 254.018 276.858 254.3 277.086 254.408C277.153 254.448 277.234 254.462 277.301 254.462C277.476 254.462 277.638 254.368 277.718 254.193C278.323 252.982 278.902 251.744 279.426 250.506C279.52 250.264 279.413 249.995 279.17 249.887C278.928 249.794 278.66 249.902 278.552 250.143Z" fill="#1C2844"/>
<path d="M330.044 195.623C329.815 195.516 329.533 195.623 329.425 195.866C328.886 197.09 328.322 198.315 327.73 199.498C327.622 199.727 327.717 200.01 327.946 200.131C328.013 200.171 328.08 200.184 328.147 200.184C328.322 200.184 328.497 200.091 328.578 199.915C329.169 198.718 329.748 197.479 330.286 196.242C330.393 196 330.286 195.731 330.044 195.623Z" fill="#1C2844"/>
<path d="M336.525 161.138H336.551C336.807 161.124 337.009 160.909 336.996 160.64C336.928 159.294 336.821 157.935 336.672 156.59C336.646 156.334 336.444 156.146 336.161 156.173C335.893 156.2 335.718 156.442 335.745 156.698C335.879 158.017 335.987 159.362 336.054 160.693C336.067 160.949 336.269 161.138 336.525 161.138Z" fill="#1C2844"/>
<path d="M325.861 203.05C325.215 204.207 324.529 205.364 323.817 206.509C323.683 206.724 323.749 207.02 323.965 207.154C324.046 207.194 324.126 207.221 324.22 207.221C324.368 207.221 324.529 207.14 324.61 207.006C325.337 205.849 326.022 204.678 326.681 203.507C326.803 203.278 326.722 202.996 326.493 202.862C326.277 202.74 325.982 202.821 325.861 203.05Z" fill="#1C2844"/>
<path d="M332.881 188.061C332.625 187.981 332.356 188.115 332.275 188.37C331.872 189.608 331.428 190.886 330.944 192.151C330.863 192.393 330.984 192.662 331.226 192.757C331.279 192.783 331.334 192.783 331.387 192.783C331.575 192.783 331.763 192.676 331.831 192.488C332.315 191.21 332.772 189.918 333.176 188.653C333.256 188.411 333.123 188.142 332.88 188.061H332.881Z" fill="#1C2844"/>
<path d="M334.939 180.257C334.696 180.204 334.428 180.365 334.374 180.621C334.092 181.912 333.769 183.231 333.419 184.523C333.351 184.765 333.513 185.034 333.755 185.102C333.796 185.115 333.836 185.115 333.877 185.115C334.092 185.115 334.28 184.98 334.334 184.765C334.684 183.46 335.006 182.128 335.303 180.823C335.356 180.567 335.195 180.312 334.939 180.257H334.939Z" fill="#1C2844"/>
<path d="M336.619 164.232C336.35 164.232 336.148 164.448 336.148 164.704C336.135 166.008 336.094 167.354 336.013 168.713C336 168.969 336.202 169.198 336.458 169.211H336.484C336.74 169.211 336.941 169.023 336.955 168.767C337.036 167.394 337.076 166.036 337.09 164.704C337.09 164.448 336.874 164.232 336.619 164.232Z" fill="#1C2844"/>
<path d="M321.611 209.846C320.845 210.949 320.051 212.039 319.231 213.089C319.07 213.29 319.11 213.586 319.312 213.748C319.406 213.815 319.5 213.841 319.608 213.841C319.742 213.841 319.89 213.788 319.984 213.667C320.804 212.603 321.611 211.501 322.378 210.384C322.525 210.182 322.472 209.886 322.257 209.738C322.041 209.59 321.746 209.63 321.611 209.846Z" fill="#1C2844"/>
<path d="M336.203 172.292C335.934 172.265 335.705 172.453 335.678 172.709C335.53 174.027 335.342 175.373 335.127 176.678C335.087 176.934 335.262 177.176 335.517 177.23H335.598C335.827 177.23 336.015 177.068 336.056 176.839C336.271 175.508 336.459 174.148 336.607 172.816C336.647 172.548 336.459 172.319 336.203 172.292H336.203Z" fill="#1C2844"/>
<path d="M283.864 238.182C283.609 238.249 283.353 238.316 283.098 238.384C283.313 237.213 283.488 236.016 283.636 234.845C283.663 234.59 283.489 234.348 283.22 234.321C282.951 234.294 282.735 234.469 282.695 234.724C282.548 236.03 282.346 237.335 282.09 238.626C281.378 238.787 280.678 238.935 279.979 239.057C279.723 239.097 279.548 239.34 279.602 239.595C279.642 239.824 279.831 239.985 280.06 239.985H280.14C281.457 239.756 282.789 239.447 284.121 239.097C284.376 239.03 284.524 238.761 284.444 238.518C284.377 238.263 284.121 238.115 283.865 238.182H283.864Z" fill="#1C2844"/>
<path d="M281.74 242.245C281.484 242.177 281.229 242.326 281.161 242.582C280.825 243.86 280.421 245.138 279.991 246.403C279.897 246.645 280.031 246.914 280.274 246.995C280.327 247.022 280.381 247.022 280.435 247.022C280.623 247.022 280.811 246.901 280.879 246.713C281.323 245.435 281.726 244.116 282.076 242.825C282.143 242.569 281.995 242.313 281.74 242.246V242.245Z" fill="#1C2844"/>
<path d="M276.023 239.54C274.678 239.634 273.36 239.648 272.043 239.593C271.747 239.567 271.572 239.782 271.559 240.038C271.545 240.293 271.746 240.522 272.002 240.536C272.526 240.549 273.065 240.562 273.589 240.562C274.409 240.562 275.243 240.536 276.09 240.482C276.346 240.468 276.548 240.24 276.521 239.984C276.508 239.715 276.319 239.527 276.023 239.54Z" fill="#1C2844"/>
<path d="M246.412 284.75C245.269 285.409 244.072 286.041 242.876 286.66C242.647 286.768 242.553 287.05 242.674 287.292C242.755 287.454 242.917 287.548 243.091 287.548C243.159 287.548 243.239 287.534 243.306 287.495C244.517 286.876 245.713 286.23 246.883 285.57C247.098 285.449 247.179 285.167 247.058 284.938C246.924 284.709 246.642 284.629 246.413 284.75H246.412Z" fill="#1C2844"/>
<path d="M291.381 235.477C290.144 236.016 288.907 236.526 287.683 236.971C287.427 237.065 287.306 237.334 287.4 237.576C287.467 237.765 287.643 237.885 287.83 237.885C287.885 237.885 287.938 237.872 287.992 237.859C289.242 237.402 290.506 236.89 291.77 236.325C291.999 236.23 292.107 235.948 291.999 235.706C291.905 235.477 291.622 235.369 291.38 235.477H291.381Z" fill="#1C2844"/>
<path d="M305.084 227.229C304.036 228.037 302.946 228.817 301.843 229.57C301.628 229.718 301.574 230.014 301.722 230.229C301.816 230.364 301.964 230.431 302.112 230.431C302.206 230.431 302.287 230.404 302.368 230.35C303.484 229.596 304.6 228.789 305.662 227.968C305.864 227.82 305.904 227.525 305.743 227.309C305.595 227.107 305.299 227.067 305.084 227.228V227.229Z" fill="#1C2844"/>
<path d="M311.176 222.022C310.221 222.938 309.213 223.839 308.204 224.7C308.002 224.875 307.989 225.171 308.151 225.372C308.245 225.48 308.38 225.533 308.514 225.533C308.622 225.533 308.729 225.493 308.823 225.412C309.845 224.538 310.853 223.623 311.835 222.694C312.023 222.519 312.023 222.223 311.849 222.035C311.661 221.847 311.364 221.834 311.176 222.022V222.022Z" fill="#1C2844"/>
<path d="M316.703 216.196C315.842 217.205 314.942 218.214 314.014 219.183C313.839 219.371 313.853 219.668 314.027 219.842C314.122 219.936 314.243 219.977 314.364 219.977C314.485 219.977 314.606 219.923 314.7 219.829C315.629 218.846 316.543 217.824 317.417 216.815C317.592 216.613 317.565 216.317 317.364 216.142C317.176 215.981 316.866 215.995 316.705 216.196H316.703Z" fill="#1C2844"/>
<path d="M298.469 231.736L297.917 232.073C296.948 232.652 295.953 233.203 294.986 233.714C294.757 233.836 294.662 234.118 294.784 234.347C294.878 234.508 295.04 234.602 295.201 234.602C295.282 234.602 295.349 234.589 295.43 234.549C296.412 234.024 297.407 233.472 298.402 232.881L298.953 232.544C299.182 232.41 299.248 232.127 299.114 231.898C298.98 231.683 298.697 231.616 298.469 231.737V231.736Z" fill="#1C2844"/>
<path d="M246.922 218.874H246.936C247.191 218.861 247.393 218.645 247.393 218.39V218C247.393 216.843 247.501 215.658 247.73 214.474C247.784 214.219 247.609 213.977 247.353 213.922C247.098 213.869 246.856 214.043 246.801 214.299C246.573 215.537 246.451 216.775 246.451 218V218.403C246.451 218.659 246.667 218.874 246.922 218.874Z" fill="#1C2844"/>
<path d="M192.633 299.725C191.303 299.806 189.958 299.873 188.626 299.914C188.357 299.927 188.155 300.142 188.169 300.398C188.169 300.654 188.385 300.856 188.64 300.856H188.654C189.999 300.816 191.357 300.748 192.701 300.668C192.957 300.641 193.159 300.426 193.132 300.17C193.118 299.901 192.931 299.699 192.634 299.726L192.633 299.725Z" fill="#1C2844"/>
<path d="M61.4242 113.386C61.5178 113.439 61.6121 113.467 61.7064 113.467C61.8542 113.467 61.9886 113.399 62.083 113.265C62.2441 113.063 62.1907 112.767 61.9753 112.619C60.8858 111.839 59.7294 111.099 58.5322 110.426C58.3035 110.292 58.0213 110.373 57.8869 110.601C57.7658 110.83 57.8468 111.112 58.0756 111.247C59.2319 111.906 60.3614 112.619 61.4242 113.386Z" fill="#1C2844"/>
<path d="M283.03 226.745C283.057 227.363 283.07 227.982 283.07 228.601C283.07 229.314 283.057 230.027 283.03 230.741C283.017 231.01 283.218 231.225 283.474 231.239H283.5C283.742 231.239 283.958 231.037 283.971 230.781C283.998 230.055 284.011 229.328 284.011 228.601C284.011 227.969 283.998 227.337 283.971 226.704C283.971 226.449 283.81 226.233 283.487 226.261C283.231 226.274 283.03 226.49 283.03 226.745V226.745Z" fill="#1C2844"/>
<path d="M200.649 298.985C199.318 299.147 197.986 299.294 196.642 299.416C196.386 299.442 196.199 299.671 196.225 299.927C196.239 300.169 196.454 300.358 196.696 300.358H196.736C198.081 300.223 199.425 300.089 200.757 299.927C201.012 299.887 201.201 299.658 201.174 299.402C201.133 299.147 200.918 298.959 200.649 298.985Z" fill="#1C2844"/>
<path d="M78.0991 220.622C78.1258 220.622 78.1526 220.622 78.1801 220.609C78.4356 220.568 78.6109 220.326 78.57 220.07C78.3546 218.738 78.1668 217.406 78.0315 216.101C78.0048 215.845 77.7894 215.656 77.5072 215.684C77.2517 215.711 77.063 215.939 77.0906 216.195C77.2384 217.514 77.4271 218.873 77.6425 220.219C77.6825 220.448 77.8712 220.622 78.0991 220.622Z" fill="#1C2844"/>
<path d="M239.271 288.41C238.047 288.974 236.823 289.513 235.586 290.024C235.344 290.119 235.237 290.401 235.331 290.643C235.412 290.819 235.586 290.926 235.762 290.926C235.829 290.926 235.896 290.912 235.95 290.899C237.201 290.374 238.438 289.836 239.662 289.271C239.891 289.15 239.999 288.881 239.891 288.638C239.783 288.41 239.501 288.302 239.272 288.41H239.271Z" fill="#1C2844"/>
<path d="M65.3238 116.575C66.0234 117.234 66.7089 117.934 67.3676 118.661C67.4619 118.768 67.5964 118.822 67.7174 118.822C67.8385 118.822 67.9462 118.782 68.0405 118.701C68.2292 118.526 68.2417 118.23 68.0672 118.028C67.3951 117.288 66.6822 116.562 65.9692 115.889C65.7003 115.647 65.4449 115.391 65.176 115.162C64.974 114.988 64.6785 115.001 64.504 115.202C64.3286 115.39 64.3562 115.687 64.544 115.861C64.8129 116.09 65.0683 116.333 65.3238 116.575Z" fill="#1C2844"/>
<path d="M280.932 215.012C281 215.201 281.188 215.321 281.376 215.321C281.43 215.321 281.484 215.321 281.538 215.295C281.78 215.214 281.914 214.945 281.82 214.689C281.349 213.371 280.798 212.119 280.179 210.935C280.058 210.706 279.776 210.626 279.547 210.747C279.318 210.868 279.224 211.15 279.345 211.379C279.95 212.51 280.475 213.734 280.932 215.012Z" fill="#1C2844"/>
<path d="M208.597 297.801C207.279 298.03 205.961 298.245 204.629 298.447C204.374 298.487 204.198 298.729 204.239 298.986C204.266 299.214 204.468 299.389 204.697 299.389C204.724 299.389 204.75 299.389 204.764 299.376C206.109 299.174 207.44 298.959 208.758 298.73C209.013 298.676 209.188 298.434 209.148 298.179C209.094 297.923 208.865 297.762 208.597 297.802V297.801Z" fill="#1C2844"/>
<path d="M216.464 296.159C215.751 296.334 215.038 296.496 214.312 296.657C213.72 296.778 213.129 296.913 212.55 297.034C212.295 297.087 212.134 297.33 212.187 297.586C212.227 297.815 212.429 297.963 212.645 297.963C212.672 297.963 212.712 297.963 212.739 297.949C213.331 297.828 213.922 297.707 214.514 297.573C215.24 297.411 215.967 297.249 216.693 297.075C216.935 297.021 217.096 296.766 217.043 296.51C216.975 296.254 216.734 296.093 216.464 296.16L216.464 296.159Z" fill="#1C2844"/>
<path d="M248.429 211.003C248.617 211.003 248.793 210.882 248.873 210.707C249.37 209.482 250.002 208.312 250.742 207.249C250.876 207.033 250.822 206.738 250.608 206.59C250.392 206.442 250.11 206.495 249.962 206.711C249.196 207.841 248.537 209.066 247.999 210.344C247.904 210.586 248.012 210.868 248.254 210.963C248.308 210.989 248.375 211.003 248.429 211.003Z" fill="#1C2844"/>
<path d="M2.63035 120.449C1.76959 121.337 0.908828 122.28 0.115694 123.234C-0.0587954 123.423 -0.0320793 123.719 0.169961 123.893C0.264302 123.961 0.371167 124.001 0.478866 124.001C0.613281 124.001 0.734339 123.948 0.82868 123.84C1.62181 122.899 2.45586 121.983 3.31662 121.095C3.49111 120.907 3.49111 120.611 3.30326 120.436C3.11458 120.248 2.81903 120.261 2.63118 120.449H2.63035Z" fill="#1C2844"/>
<path d="M231.848 291.504C230.597 291.975 229.333 292.419 228.069 292.85C227.814 292.931 227.679 293.2 227.774 293.442C227.841 293.644 228.016 293.766 228.218 293.766C228.271 293.766 228.311 293.766 228.365 293.739C229.643 293.308 230.921 292.864 232.185 292.38C232.427 292.299 232.548 292.016 232.454 291.774C232.36 291.532 232.091 291.411 231.849 291.505L231.848 291.504Z" fill="#1C2844"/>
<path d="M224.236 294.074C222.959 294.464 221.668 294.827 220.363 295.177C220.121 295.244 219.973 295.5 220.04 295.756C220.094 295.958 220.282 296.106 220.498 296.106C220.524 296.106 220.578 296.093 220.619 296.079C221.909 295.729 223.214 295.366 224.505 294.976C224.76 294.895 224.895 294.639 224.828 294.384C224.747 294.141 224.492 293.993 224.236 294.074V294.074Z" fill="#1C2844"/>
<path d="M282.721 222.762C282.748 223.005 282.95 223.179 283.192 223.179C283.205 223.179 283.232 223.179 283.245 223.166C283.501 223.139 283.69 222.91 283.649 222.641C283.487 221.269 283.245 219.911 282.963 218.632C282.896 218.376 282.64 218.215 282.398 218.268C282.142 218.323 281.981 218.577 282.035 218.834C282.331 220.099 282.559 221.418 282.721 222.762Z" fill="#1C2844"/>
<path d="M310.033 49.2053C318.659 49.2053 325.902 42.1935 325.902 33.3282C325.902 24.4628 318.788 17.451 310.033 17.451C301.279 17.451 294.165 24.5689 294.165 33.3282C294.165 42.0874 301.411 49.2053 310.033 49.2053ZM321.948 42.3163C319.477 45.7152 314.945 48.2638 310.033 48.2638C305.122 48.2638 300.619 45.7679 298.119 42.3163V42.3029C300.942 38.5891 305.367 36.3688 310.033 36.3688C314.699 36.3688 319.124 38.5891 321.948 42.3029V42.3163ZM310.033 18.3933C318.263 18.3933 324.96 25.0943 324.96 33.3282C324.96 36.261 324.126 39.0735 322.499 41.4952C320.119 38.4546 316.703 36.4088 312.938 35.6963C315.209 34.6496 316.811 32.2915 316.811 29.5875C316.811 25.8469 313.772 22.8063 310.033 22.8063C306.295 22.8063 303.256 25.8478 303.256 29.5875C303.256 32.2923 304.857 34.6496 307.129 35.6963C303.377 36.4097 299.947 38.4546 297.567 41.4952C295.953 39.0735 295.106 36.261 295.106 33.3282C295.106 25.0935 301.803 18.3933 310.033 18.3933ZM310.033 35.4273C306.81 35.4273 304.197 32.7818 304.197 29.5875C304.197 26.3932 306.82 23.7486 310.033 23.7486C313.247 23.7486 315.87 26.3724 315.87 29.5875C315.87 32.8027 313.195 35.4273 310.033 35.4273Z" fill="#1C2844"/>
<path d="M288.691 67.4906V57.7891C288.691 57.0632 288.1 56.4701 287.374 56.4701H277.691C276.966 56.4701 276.374 57.0623 276.374 57.7891V67.4906C276.374 68.2165 276.966 68.8087 277.691 68.8087H287.374C288.1 68.8087 288.691 68.2165 288.691 67.4906ZM287.751 67.4906C287.751 67.7061 287.589 67.8673 287.374 67.8673H277.691C277.476 67.8673 277.315 67.7061 277.315 67.4906V57.7891C277.315 57.5877 277.476 57.4123 277.691 57.4123H287.374C287.589 57.4123 287.751 57.5869 287.751 57.7891V67.4906Z" fill="#1C2844"/>
<path d="M320.74 59.4655C320.74 59.7253 320.951 59.9366 321.211 59.9366H339.537C339.797 59.9366 340.007 59.7261 340.007 59.4655C340.007 59.2049 339.797 58.9944 339.537 58.9944H321.211C320.951 58.9944 320.74 59.2049 320.74 59.4655Z" fill="#1C2844"/>
<path d="M295.335 59.9366H312.575C312.834 59.9366 313.045 59.7261 313.045 59.4655C313.045 59.2049 312.834 58.9944 312.575 58.9944H295.335C295.076 58.9944 294.865 59.2049 294.865 59.4655C294.865 59.7261 295.076 59.9366 295.335 59.9366Z" fill="#1C2844"/>
<path d="M295.335 63.4559H329.815C330.074 63.4559 330.285 63.2454 330.285 62.9848C330.285 62.7242 330.074 62.5137 329.815 62.5137H295.335C295.076 62.5137 294.865 62.7242 294.865 62.9848C294.865 63.2454 295.076 63.4559 295.335 63.4559Z" fill="#1C2844"/>
<path d="M306.615 65.816C306.615 66.0757 306.826 66.2871 307.085 66.2871H338.579C338.838 66.2871 339.049 66.0766 339.049 65.816C339.049 65.5553 338.838 65.3448 338.579 65.3448H307.085C306.826 65.3448 306.615 65.5553 306.615 65.816Z" fill="#1C2844"/>
<path d="M295.335 66.2871H300.977C301.237 66.2871 301.447 66.0766 301.447 65.816C301.447 65.5553 301.237 65.3448 300.977 65.3448H295.335C295.076 65.3448 294.865 65.5553 294.865 65.816C294.865 66.0766 295.076 66.2871 295.335 66.2871Z" fill="#1C2844"/>
<path d="M339.537 75.456H321.211C320.951 75.456 320.74 75.6665 320.74 75.9272C320.74 76.1878 320.951 76.3983 321.211 76.3983H339.537C339.797 76.3983 340.007 76.1878 340.007 75.9272C340.007 75.6665 339.797 75.456 339.537 75.456Z" fill="#1C2844"/>
<path d="M295.335 76.3983H312.575C312.834 76.3983 313.045 76.1878 313.045 75.9272C313.045 75.6665 312.834 75.456 312.575 75.456H295.335C295.076 75.456 294.865 75.6665 294.865 75.9272C294.865 76.1878 295.076 76.3983 295.335 76.3983Z" fill="#1C2844"/>
<path d="M295.335 79.9185H329.815C330.074 79.9185 330.285 79.708 330.285 79.4474C330.285 79.1868 330.074 78.9763 329.815 78.9763H295.335C295.076 78.9763 294.865 79.1868 294.865 79.4474C294.865 79.708 295.076 79.9185 295.335 79.9185Z" fill="#1C2844"/>
<path d="M338.579 81.8073H307.085C306.826 81.8073 306.615 82.0178 306.615 82.2785C306.615 82.5391 306.826 82.7496 307.085 82.7496H338.579C338.838 82.7496 339.049 82.5391 339.049 82.2785C339.049 82.0178 338.838 81.8073 338.579 81.8073Z" fill="#1C2844"/>
<path d="M301.447 82.2785C301.447 82.0187 301.237 81.8073 300.977 81.8073H295.335C295.076 81.8073 294.865 82.0178 294.865 82.2785C294.865 82.5391 295.076 82.7496 295.335 82.7496H300.977C301.237 82.7496 301.447 82.5391 301.447 82.2785Z" fill="#1C2844"/>
<path d="M308.285 97.6433L305.865 97.2933L304.789 95.0997C304.465 94.454 303.403 94.454 303.08 95.0997L301.991 97.2933L299.584 97.6433C299.221 97.6968 298.925 97.9524 298.817 98.289C298.696 98.639 298.791 99.0158 299.06 99.2714L300.808 100.98L300.391 103.389C300.324 103.739 300.472 104.102 300.768 104.317C300.942 104.438 301.131 104.492 301.332 104.492C301.48 104.492 301.628 104.465 301.776 104.384L303.928 103.254L306.093 104.384C306.416 104.56 306.792 104.532 307.088 104.317C307.383 104.101 307.532 103.738 307.478 103.389L307.061 100.98L308.809 99.2714C309.078 99.0158 309.159 98.639 309.051 98.289C308.944 97.9524 308.648 97.6968 308.285 97.6433ZM306.228 100.469C306.12 100.577 306.067 100.738 306.093 100.886L306.538 103.55L304.157 102.299C304.09 102.272 304.01 102.245 303.929 102.245C303.861 102.245 303.781 102.272 303.713 102.299L301.32 103.537L301.777 100.886C301.804 100.738 301.75 100.576 301.643 100.469L299.72 98.5722L302.382 98.1955C302.53 98.1687 302.665 98.0743 302.732 97.9265L303.943 95.5182L305.14 97.9265C305.208 98.0743 305.328 98.1687 305.49 98.1955L308.152 98.5989L306.23 100.469H306.228Z" fill="#1C2844"/>
<path d="M320.495 97.6435L318.075 97.2935L316.999 95.0999C316.837 94.7774 316.514 94.5753 316.138 94.5753C315.761 94.5753 315.451 94.7774 315.29 95.0999L314.214 97.2935L311.794 97.6435C311.431 97.6969 311.135 97.9525 311.027 98.2892C310.906 98.6392 311.001 99.0159 311.27 99.2715L313.018 100.981L312.601 103.389C312.534 103.739 312.681 104.102 312.978 104.317C313.152 104.438 313.341 104.492 313.542 104.492C313.69 104.492 313.838 104.466 313.986 104.385L316.138 103.254L318.303 104.385C318.626 104.56 319.015 104.532 319.311 104.317C319.607 104.101 319.741 103.738 319.688 103.389L319.271 100.981L321.019 99.2715C321.288 99.0159 321.368 98.6392 321.261 98.2892C321.154 97.9525 320.858 97.6969 320.495 97.6435ZM318.438 100.469C318.33 100.577 318.277 100.738 318.303 100.886L318.747 103.55L316.366 102.299C316.299 102.272 316.219 102.245 316.138 102.245C316.07 102.245 315.99 102.272 315.922 102.299L313.529 103.537L313.986 100.886C314.013 100.738 313.96 100.576 313.852 100.469L311.929 98.5723L314.592 98.1956C314.739 98.1689 314.874 98.0745 314.941 97.9266L316.152 95.5184L317.349 97.9266C317.416 98.0745 317.55 98.1689 317.698 98.1956L320.361 98.5991L318.438 100.469Z" fill="#1C2844"/>
<path d="M332.706 97.6433L330.286 97.2933L329.209 95.0997C328.886 94.4407 327.824 94.454 327.501 95.0997L326.426 97.2933L324.006 97.6433C323.642 97.6968 323.347 97.9524 323.239 98.289C323.132 98.639 323.213 99.0158 323.481 99.2714L325.23 100.98L324.813 103.389C324.76 103.739 324.894 104.102 325.19 104.317C325.365 104.438 325.553 104.492 325.755 104.492C325.903 104.492 326.05 104.465 326.198 104.384L328.363 103.254L330.514 104.384C330.837 104.56 331.227 104.532 331.523 104.317C331.818 104.101 331.967 103.738 331.899 103.389L331.483 100.98L333.231 99.2714C333.5 99.0158 333.594 98.639 333.473 98.289C333.365 97.9524 333.07 97.6968 332.707 97.6433H332.706ZM330.649 100.469C330.541 100.577 330.488 100.738 330.514 100.886L330.959 103.55L328.578 102.299C328.511 102.272 328.431 102.245 328.363 102.245C328.282 102.245 328.202 102.272 328.134 102.299L325.74 103.537L326.197 100.886C326.224 100.738 326.171 100.576 326.063 100.469L324.139 98.5722L326.802 98.1955C326.949 98.1688 327.084 98.0744 327.151 97.9265L328.362 95.5182L329.558 97.9265C329.626 98.0744 329.76 98.1688 329.908 98.1955L332.571 98.5989L330.648 100.469H330.649Z" fill="#1C2844"/>
<path d="M185.453 39.4912C193.433 39.4912 200.137 33.0023 200.137 24.7977C200.137 16.5931 193.549 10.1051 185.453 10.1051C177.357 10.1051 170.768 16.6984 170.768 24.7977C170.768 32.8971 177.392 39.4912 185.453 39.4912ZM185.453 38.5489C181.097 38.5489 177.005 36.4539 174.493 33.0992V33.0858C177.102 29.6685 181.163 27.6362 185.453 27.6362C189.742 27.6362 193.817 29.6677 196.412 33.0858C193.207 36.9643 189.358 38.5489 185.453 38.5489ZM185.453 11.0474C193.023 11.0474 199.196 17.2229 199.196 24.7977C199.196 27.4883 198.43 30.072 196.964 32.2923C194.785 29.5207 191.665 27.637 188.25 26.9646C190.442 25.9003 191.746 23.6675 191.746 21.3403C191.746 17.8687 188.922 15.0569 185.453 15.0569C181.983 15.0569 179.159 17.8687 179.159 21.3403C179.159 23.6441 180.441 25.8803 182.642 26.9646C179.226 27.637 176.12 29.5073 173.941 32.2789C172.462 30.0586 171.709 27.4891 171.709 24.7977C171.709 17.2229 177.868 11.0474 185.453 11.0474ZM185.453 26.6947C182.492 26.6947 180.1 24.2815 180.1 21.3394C180.1 18.3974 182.507 15.9975 185.453 15.9975C188.398 15.9975 190.805 18.3924 190.805 21.3394C190.805 24.2865 188.337 26.6947 185.453 26.6947Z" fill="#1C2844"/>
<path d="M155.586 57.5877H164.528C165.228 57.5877 165.792 57.023 165.792 56.3364V47.3758C165.792 46.6892 165.228 46.1245 164.528 46.1245H155.586C154.9 46.1245 154.335 46.6892 154.335 47.3758V56.3364C154.335 57.0222 154.9 57.5877 155.586 57.5877ZM155.276 47.3758C155.276 47.2004 155.424 47.0668 155.585 47.0668H164.527C164.702 47.0668 164.851 47.2012 164.851 47.3758V56.3364C164.851 56.511 164.703 56.6455 164.527 56.6455H155.585C155.424 56.6455 155.276 56.511 155.276 56.3364V47.3758Z" fill="#1C2844"/>
<path d="M195.297 48.9245C195.297 49.1843 195.507 49.3956 195.767 49.3956H212.683C212.943 49.3956 213.153 49.1851 213.153 48.9245C213.153 48.6639 212.943 48.4534 212.683 48.4534H195.767C195.507 48.4534 195.297 48.6639 195.297 48.9245Z" fill="#1C2844"/>
<path d="M171.881 49.3956H187.795C188.055 49.3956 188.265 49.1851 188.265 48.9245C188.265 48.6639 188.055 48.4534 187.795 48.4534H171.881C171.621 48.4534 171.411 48.6639 171.411 48.9245C171.411 49.1851 171.621 49.3956 171.881 49.3956Z" fill="#1C2844"/>
<path d="M171.881 52.6444H203.708C203.968 52.6444 204.178 52.4339 204.178 52.1733C204.178 51.9126 203.968 51.7021 203.708 51.7021H171.881C171.621 51.7021 171.411 51.9126 171.411 52.1733C171.411 52.4339 171.621 52.6444 171.881 52.6444Z" fill="#1C2844"/>
<path d="M182.259 54.7859C182.259 55.0457 182.469 55.2571 182.729 55.2571H211.797C212.057 55.2571 212.267 55.0466 212.267 54.7859C212.267 54.5253 212.057 54.3148 211.797 54.3148H182.729C182.469 54.3148 182.259 54.5253 182.259 54.7859Z" fill="#1C2844"/>
<path d="M171.881 55.2571H177.09C177.349 55.2571 177.56 55.0466 177.56 54.7859C177.56 54.5253 177.349 54.3148 177.09 54.3148H171.881C171.621 54.3148 171.411 54.5253 171.411 54.7859C171.411 55.0466 171.621 55.2571 171.881 55.2571Z" fill="#1C2844"/>
<path d="M155.586 72.7791H164.528C165.228 72.7791 165.792 72.227 165.792 71.5278V62.5797C165.792 61.8797 165.228 61.315 164.528 61.315H155.586C154.9 61.315 154.335 61.8797 154.335 62.5797V71.5278C154.335 72.227 154.9 72.7791 155.586 72.7791ZM155.276 62.5797C155.276 62.4051 155.424 62.2565 155.585 62.2565H164.527C164.702 62.2565 164.851 62.4043 164.851 62.5797V71.5278C164.851 71.7024 164.703 71.8369 164.527 71.8369H155.585C155.424 71.8369 155.276 71.7024 155.276 71.5278V62.5797Z" fill="#1C2844"/>
<path d="M212.682 63.6488H195.766C195.506 63.6488 195.296 63.8593 195.296 64.1199C195.296 64.3805 195.506 64.591 195.766 64.591H212.682C212.942 64.591 213.152 64.3805 213.152 64.1199C213.152 63.8593 212.942 63.6488 212.682 63.6488Z" fill="#1C2844"/>
<path d="M171.881 64.591H187.795C188.055 64.591 188.265 64.3805 188.265 64.1199C188.265 63.8593 188.055 63.6488 187.795 63.6488H171.881C171.621 63.6488 171.411 63.8593 171.411 64.1199C171.411 64.3805 171.621 64.591 171.881 64.591Z" fill="#1C2844"/>
<path d="M171.881 67.8397H203.708C203.968 67.8397 204.178 67.6292 204.178 67.3686C204.178 67.1079 203.968 66.8974 203.708 66.8974H171.881C171.621 66.8974 171.411 67.1079 171.411 67.3686C171.411 67.6292 171.621 67.8397 171.881 67.8397Z" fill="#1C2844"/>
<path d="M211.797 69.5111H182.729C182.469 69.5111 182.259 69.7216 182.259 69.9822C182.259 70.2428 182.469 70.4533 182.729 70.4533H211.797C212.057 70.4533 212.267 70.2428 212.267 69.9822C212.267 69.7216 212.057 69.5111 211.797 69.5111Z" fill="#1C2844"/>
<path d="M171.881 70.4533H177.09C177.349 70.4533 177.56 70.2428 177.56 69.9822C177.56 69.7216 177.349 69.5111 177.09 69.5111H171.881C171.621 69.5111 171.411 69.7216 171.411 69.9822C171.411 70.2428 171.621 70.4533 171.881 70.4533Z" fill="#1C2844"/>
<path d="M163.788 84.7533C163.681 85.0899 163.762 85.4533 164.017 85.6956L165.618 87.2559L165.241 89.4621C165.173 89.7987 165.322 90.1479 165.604 90.35C165.765 90.4711 165.954 90.5246 166.142 90.5246C166.29 90.5246 166.425 90.4979 166.573 90.4168L168.55 89.381L170.527 90.4168C170.836 90.5781 171.199 90.5513 171.482 90.35C171.764 90.1479 171.913 89.7979 171.845 89.4621L171.468 87.2559L173.069 85.6956C173.324 85.4533 173.419 85.0899 173.311 84.7533C173.203 84.4167 172.921 84.1886 172.571 84.1343L170.352 83.8111L169.37 81.8063C169.061 81.1739 168.039 81.1739 167.73 81.8063L166.735 83.8111L164.529 84.1343C164.179 84.1878 163.897 84.4167 163.789 84.7533H163.788ZM167.11 84.6998C167.271 84.6865 167.406 84.5921 167.473 84.4442L168.536 82.2515L169.625 84.4442C169.693 84.5921 169.826 84.6865 169.975 84.6998L172.423 85.0231L170.634 86.7447C170.527 86.8525 170.473 87.0137 170.5 87.1616L170.957 89.5832L168.765 88.4262C168.631 88.3594 168.456 88.3594 168.322 88.4262L166.17 89.6107L166.587 87.1616C166.614 87.0137 166.56 86.8525 166.452 86.7447L164.664 85.0632L167.111 84.6998H167.11Z" fill="#1C2844"/>
<path d="M183.839 84.1343L181.62 83.8111L180.638 81.8063C180.329 81.1739 179.306 81.1739 178.997 81.8063L178.002 83.8111L175.796 84.1343C175.447 84.1878 175.164 84.4167 175.057 84.7533C174.949 85.0899 175.043 85.4533 175.285 85.6956L176.886 87.2559L176.509 89.4621C176.455 89.7987 176.59 90.1479 176.873 90.35C177.034 90.4711 177.222 90.5246 177.411 90.5246C177.559 90.5246 177.707 90.4979 177.841 90.4168L179.818 89.381L181.795 90.4168C182.104 90.5781 182.48 90.5513 182.763 90.35C183.046 90.1479 183.18 89.7979 183.127 89.4621L182.75 87.2559L184.351 85.6956C184.593 85.4533 184.687 85.0899 184.579 84.7533C184.472 84.4167 184.189 84.1886 183.84 84.1343H183.839ZM181.916 86.7447C181.795 86.8525 181.755 87.0137 181.782 87.1616L182.238 89.5832L180.033 88.4262C179.899 88.3594 179.738 88.3594 179.603 88.4262L177.438 89.6107L177.854 87.1616C177.881 87.0137 177.84 86.8525 177.72 86.7447L175.932 85.0632L178.393 84.6998C178.541 84.6865 178.675 84.5921 178.743 84.4442L179.805 82.2515L180.894 84.4442C180.962 84.5921 181.096 84.6865 181.244 84.6998L183.692 85.0231L181.917 86.7447H181.916Z" fill="#1C2844"/>
<path d="M244.556 123.316C254.679 123.316 263.142 115.069 263.142 104.72C263.142 94.3724 254.804 86.1252 244.556 86.1252C234.309 86.1252 225.984 94.4676 225.984 104.72C225.984 114.973 234.539 123.316 244.556 123.316ZM252.449 120.491C250.029 121.715 247.339 122.374 244.555 122.374C241.436 122.374 238.397 121.541 235.761 120.006C232.461 118.17 230.57 115.419 230.436 115.283C233.757 110.843 239.016 108.206 244.556 108.206C250.097 108.206 255.355 110.843 258.677 115.283C258.542 115.418 256.361 118.623 252.45 120.491H252.449ZM244.556 107.264C240.828 107.264 237.618 104.23 237.618 100.308C237.618 96.3864 240.724 93.3658 244.556 93.3658C248.388 93.3658 251.508 96.4741 251.508 100.308C251.508 104.142 248.353 107.264 244.556 107.264ZM244.556 87.0683C254.279 87.0683 262.2 94.9797 262.2 104.721C262.2 108.22 261.191 111.584 259.241 114.476C256.39 110.79 252.261 108.327 247.73 107.534C250.391 106.356 252.449 103.64 252.449 100.308C252.449 95.962 248.913 92.4236 244.555 92.4236C240.198 92.4236 236.675 95.962 236.675 100.308C236.675 103.556 238.63 106.316 241.382 107.534C236.864 108.327 232.735 110.79 229.884 114.476C227.934 111.584 226.925 108.22 226.925 104.721C226.925 94.9797 234.832 87.0683 244.555 87.0683H244.556Z" fill="#1C2844"/>
<path d="M206.512 146.364H217.902C218.709 146.364 219.368 145.705 219.368 144.898V133.488C219.368 132.681 218.709 132.022 217.902 132.022H206.512C205.692 132.022 205.032 132.681 205.032 133.488V144.898C205.032 145.705 205.691 146.364 206.512 146.364ZM205.974 133.488C205.974 133.192 206.216 132.964 206.512 132.964H217.902C218.198 132.964 218.426 133.193 218.426 133.488V144.898C218.426 145.194 218.197 145.423 217.902 145.423H206.512C206.216 145.423 205.974 145.194 205.974 144.898V133.488Z" fill="#1C2844"/>
<path d="M279.261 134.987H257.704C257.444 134.987 257.234 135.197 257.234 135.458C257.234 135.719 257.444 135.929 257.704 135.929H279.261C279.521 135.929 279.731 135.719 279.731 135.458C279.731 135.197 279.521 134.987 279.261 134.987Z" fill="#1C2844"/>
<path d="M247.546 134.987H227.267C227.008 134.987 226.797 135.197 226.797 135.458C226.797 135.719 227.008 135.929 227.267 135.929H247.546C247.805 135.929 248.016 135.719 248.016 135.458C248.016 135.197 247.805 134.987 247.546 134.987Z" fill="#1C2844"/>
<path d="M267.823 139.128H227.267C227.008 139.128 226.797 139.338 226.797 139.599C226.797 139.859 227.008 140.07 227.267 140.07H267.823C268.083 140.07 268.293 139.859 268.293 139.599C268.293 139.338 268.083 139.128 267.823 139.128Z" fill="#1C2844"/>
<path d="M278.604 142.928C278.604 142.668 278.393 142.457 278.134 142.457H241.091C240.831 142.457 240.621 142.667 240.621 142.928C240.621 143.189 240.831 143.399 241.091 143.399H278.134C278.393 143.399 278.604 143.189 278.604 142.928Z" fill="#1C2844"/>
<path d="M227.267 143.399H233.905C234.164 143.399 234.375 143.189 234.375 142.928C234.375 142.667 234.164 142.457 233.905 142.457H227.267C227.008 142.457 226.797 142.667 226.797 142.928C226.797 143.189 227.008 143.399 227.267 143.399Z" fill="#1C2844"/>
<path d="M219.368 164.259V152.85C219.368 152.042 218.709 151.383 217.902 151.383H206.512C205.692 151.383 205.032 152.042 205.032 152.85V164.259C205.032 165.066 205.691 165.726 206.512 165.726H217.902C218.709 165.726 219.368 165.066 219.368 164.259ZM205.974 164.259V152.85C205.974 152.567 206.216 152.325 206.512 152.325H217.902C218.198 152.325 218.426 152.567 218.426 152.85V164.259C218.426 164.555 218.197 164.784 217.902 164.784H206.512C206.216 164.784 205.974 164.555 205.974 164.259Z" fill="#1C2844"/>
<path d="M279.261 154.351H257.704C257.444 154.351 257.234 154.562 257.234 154.823C257.234 155.083 257.444 155.294 257.704 155.294H279.261C279.521 155.294 279.731 155.083 279.731 154.823C279.731 154.562 279.521 154.351 279.261 154.351Z" fill="#1C2844"/>
<path d="M247.546 154.351H227.267C227.008 154.351 226.797 154.562 226.797 154.823C226.797 155.083 227.008 155.294 227.267 155.294H247.546C247.805 155.294 248.016 155.083 248.016 154.823C248.016 154.562 247.805 154.351 247.546 154.351Z" fill="#1C2844"/>
<path d="M268.295 158.962C268.295 158.703 268.084 158.491 267.825 158.491H227.269C227.009 158.491 226.799 158.702 226.799 158.962C226.799 159.223 227.009 159.434 227.269 159.434H267.825C268.084 159.434 268.295 159.223 268.295 158.962Z" fill="#1C2844"/>
<path d="M278.133 161.822H241.09C240.83 161.822 240.62 162.032 240.62 162.293C240.62 162.554 240.83 162.764 241.09 162.764H278.133C278.392 162.764 278.603 162.554 278.603 162.293C278.603 162.032 278.392 161.822 278.133 161.822Z" fill="#1C2844"/>
<path d="M227.267 161.822C227.008 161.822 226.797 162.032 226.797 162.293C226.797 162.554 227.008 162.764 227.267 162.764H233.905C234.164 162.764 234.375 162.554 234.375 162.293C234.375 162.032 234.164 161.822 233.905 161.822H227.267Z" fill="#1C2844"/>
<path d="M228.122 180.446L225.231 180.029L223.94 177.419C223.59 176.706 222.433 176.706 222.084 177.419L220.793 180.029L217.902 180.446C217.512 180.514 217.19 180.783 217.069 181.16C216.948 181.536 217.055 181.94 217.337 182.222L219.422 184.255L218.924 187.134C218.857 187.524 219.019 187.914 219.341 188.143C219.664 188.385 220.081 188.412 220.431 188.224L223.013 186.865L225.595 188.224C225.756 188.304 225.917 188.345 226.079 188.345C226.295 188.345 226.51 188.277 226.685 188.143C227.008 187.914 227.169 187.524 227.101 187.134L226.604 184.255L228.701 182.222C228.983 181.94 229.077 181.536 228.956 181.16C228.835 180.783 228.512 180.514 228.122 180.446ZM228.041 181.549L225.769 183.756C225.661 183.864 225.608 184.025 225.634 184.173L226.173 187.294L226.63 187.214L226.038 187.389L223.227 185.922C223.092 185.842 222.931 185.842 222.797 185.922L220 187.389L220.215 187.805L219.852 187.294L220.39 184.173C220.416 184.025 220.363 183.864 220.255 183.756L217.996 181.549L217.66 181.886L218.036 181.388L221.169 180.93C221.331 180.903 221.465 180.809 221.533 180.674L223.012 177.782C223.052 177.782 223.08 177.795 223.106 177.835L224.505 180.673C224.572 180.808 224.706 180.902 224.855 180.929L227.988 181.387L228.056 180.916L228.042 181.548L228.041 181.549Z" fill="#1C2844"/>
<path d="M242.485 180.446L239.594 180.029L238.303 177.419C237.953 176.706 236.797 176.706 236.447 177.419L235.157 180.029L232.279 180.446C231.875 180.514 231.567 180.783 231.431 181.16C231.31 181.536 231.418 181.94 231.7 182.222L233.785 184.255L233.301 187.134C233.233 187.524 233.381 187.914 233.704 188.143C234.027 188.385 234.444 188.412 234.793 188.224L237.376 186.865L239.958 188.224C240.119 188.304 240.281 188.345 240.442 188.345C240.658 188.345 240.873 188.277 241.061 188.143C241.37 187.914 241.532 187.524 241.464 187.134L240.966 184.255L243.064 182.222C243.347 181.94 243.44 181.536 243.319 181.16C243.198 180.783 242.875 180.514 242.485 180.446ZM242.405 181.549L240.132 183.756C240.025 183.864 239.971 184.025 239.998 184.173L240.536 187.294L240.401 187.389L237.604 185.922C237.47 185.842 237.296 185.842 237.16 185.922L234.363 187.389L234.579 187.805L234.229 187.294L234.753 184.173C234.78 184.025 234.74 183.864 234.619 183.756L232.36 181.549L232.413 181.388L235.533 180.93C235.694 180.903 235.829 180.809 235.896 180.674L237.376 177.782C237.416 177.782 237.443 177.795 237.47 177.835L238.868 180.673C238.936 180.808 239.07 180.902 239.218 180.929L242.352 181.387L242.418 180.916L242.405 181.548V181.549Z" fill="#1C2844"/>
<path d="M256.847 180.446L253.969 180.029L252.679 177.419C252.316 176.706 251.173 176.706 250.809 177.419L249.518 180.029L246.64 180.446C246.25 180.514 245.927 180.783 245.806 181.16C245.685 181.536 245.779 181.94 246.061 182.222L248.146 184.255L247.662 187.134C247.594 187.524 247.756 187.914 248.065 188.143C248.388 188.385 248.805 188.412 249.168 188.224L251.75 186.865L254.333 188.224C254.48 188.304 254.641 188.345 254.803 188.345C255.019 188.345 255.234 188.277 255.422 188.143C255.745 187.914 255.893 187.524 255.825 187.134L255.341 184.255L257.426 182.222C257.708 181.94 257.816 181.536 257.681 181.16C257.56 180.783 257.25 180.514 256.847 180.446ZM256.766 181.549L254.507 183.756C254.386 183.864 254.346 184.025 254.373 184.173L254.897 187.294L255.368 187.214L254.763 187.389L251.966 185.922C251.831 185.842 251.657 185.842 251.522 185.922L248.725 187.389L248.94 187.805L248.59 187.294L249.129 184.173C249.142 184.025 249.102 183.864 248.981 183.756L246.722 181.549L246.776 181.388L249.909 180.93C250.057 180.903 250.192 180.809 250.259 180.674L251.752 177.782C251.779 177.782 251.82 177.795 251.832 177.835L253.231 180.673C253.298 180.808 253.433 180.902 253.58 180.929L256.714 181.387L256.781 180.916L256.768 181.548L256.766 181.549Z" fill="#1C2844"/>
<path d="M271.21 180.446L268.332 180.029L267.041 177.419C266.692 176.706 265.535 176.706 265.185 177.419L263.895 180.029L261.004 180.446C260.614 180.514 260.291 180.783 260.17 181.16C260.049 181.536 260.144 181.94 260.426 182.222L262.524 184.255L262.026 187.134C261.959 187.524 262.121 187.914 262.443 188.143C262.766 188.385 263.183 188.412 263.532 188.224L266.115 186.865L268.697 188.224C268.845 188.304 269.006 188.345 269.181 188.345C269.397 188.345 269.598 188.277 269.786 188.143C270.11 187.914 270.257 187.524 270.203 187.134L269.705 184.255L271.79 182.222C272.072 181.94 272.18 181.536 272.059 181.16C271.938 180.783 271.615 180.514 271.212 180.446H271.21ZM271.129 181.549L268.87 183.756C268.762 183.864 268.709 184.025 268.735 184.173L269.274 187.294L269.731 187.214L269.125 187.389L266.328 185.922C266.194 185.842 266.033 185.842 265.885 185.922L263.088 187.389L263.304 187.805L262.954 187.294L263.492 184.173C263.519 184.025 263.466 183.864 263.358 183.756L261.085 181.549L261.139 181.388L264.272 180.93C264.42 180.903 264.554 180.809 264.622 180.674L266.115 177.782C266.155 177.782 266.182 177.795 266.196 177.835L267.594 180.673C267.661 180.808 267.795 180.902 267.957 180.929L271.077 181.387L271.145 180.916L271.131 181.548L271.129 181.549Z" fill="#1C2844"/>
<path d="M105.789 70.5446C104.848 70.5446 104.027 71.1235 103.664 71.9438C103.664 71.9438 103.664 71.958 103.651 71.9705C103.557 72.2395 103.49 72.5227 103.49 72.8318C103.49 72.9253 103.516 73.0063 103.57 73.074C103.637 73.2085 103.785 73.3029 103.96 73.3029C104.215 73.3029 104.431 73.0874 104.431 72.8318C104.431 72.0917 105.036 71.4861 105.789 71.4861C106.058 71.4861 106.26 71.2705 106.26 71.0149C106.26 70.7593 106.059 70.5438 105.789 70.5438V70.5446Z" fill="#1C2844"/>
<path d="M122.167 78.8736C122.449 78.9538 122.759 78.9814 123.055 78.9814C123.982 78.9814 124.911 78.6448 125.34 78.0801C125.865 77.3934 125.623 76.6141 125.462 76.0886L124.332 72.4959C124.251 72.2403 123.996 72.1058 123.74 72.1868C123.498 72.2536 123.35 72.5235 123.431 72.7791L124.561 76.3718C124.736 76.9365 124.789 77.2598 124.587 77.5154C124.292 77.9055 123.256 78.1878 122.423 77.9598C122.167 77.8921 121.912 78.04 121.844 78.2964C121.763 78.5387 121.925 78.8076 122.167 78.8753V78.8736Z" fill="#1C2844"/>
<path d="M120.823 73.2225C120.823 72.5092 120.245 71.9044 119.506 71.9044C118.767 71.9044 118.161 72.51 118.161 73.2225C118.161 73.9351 118.766 74.5683 119.506 74.5683C120.245 74.5683 120.823 73.9626 120.823 73.2225Z" fill="#1C2844"/>
<path d="M128.206 71.9044C127.467 71.9044 126.861 72.51 126.861 73.2225C126.861 73.9351 127.467 74.5683 128.206 74.5683C128.946 74.5683 129.525 73.9626 129.525 73.2225C129.525 72.4824 128.946 71.9044 128.206 71.9044Z" fill="#1C2844"/>
<path d="M117.071 70.0742C117.206 70.0742 117.327 70.0207 117.421 69.9264C117.475 69.8595 118.927 68.3927 120.729 69.5897C120.944 69.7376 121.24 69.6841 121.388 69.4686C121.522 69.2531 121.469 68.9574 121.253 68.8095C119.276 67.4914 117.434 68.5405 116.735 69.2806C116.56 69.4694 116.56 69.7651 116.748 69.9406C116.843 70.0341 116.964 70.075 117.071 70.075V70.0742Z" fill="#1C2844"/>
<path d="M126.081 69.872C126.202 69.872 126.323 69.8186 126.418 69.7242C126.485 69.6565 127.924 68.1905 129.726 69.3875C129.941 69.5354 130.236 69.4819 130.384 69.2664C130.532 69.0509 130.464 68.7552 130.25 68.6065C128.273 67.2884 126.43 68.3375 125.731 69.0776C125.557 69.2664 125.57 69.5621 125.758 69.7367C125.853 69.8311 125.96 69.8712 126.081 69.8712V69.872Z" fill="#1C2844"/>
<path d="M124.897 82.6411C123.633 83.8114 122.449 83.8114 121.145 82.6411C120.958 82.4657 120.661 82.4799 120.487 82.6812C120.312 82.8699 120.326 83.1657 120.527 83.3411C121.36 84.0945 122.207 84.4579 123.041 84.4579C123.875 84.4579 124.722 84.0812 125.529 83.3411C125.718 83.1657 125.731 82.8566 125.556 82.6686C125.382 82.4799 125.085 82.4665 124.897 82.6419V82.6411Z" fill="#1C2844"/>
<path d="M35.9003 106.982C43.4042 106.982 49.523 100.873 49.523 93.3651C49.523 85.8571 43.289 79.7484 35.9003 79.7484C28.5117 79.7484 22.8069 85.3877 22.3311 92.4629C21.947 100.912 28.4758 106.981 35.9003 106.981V106.982ZM23.2595 92.706C23.58 86.5304 28.7413 80.6906 35.9003 80.6906H36.008C42.9108 80.7458 48.5821 86.416 48.5821 93.3659C48.5821 100.316 42.8941 106.04 35.9012 106.04C28.5467 106.04 22.8211 99.7378 23.2603 92.7202V92.7069L23.2595 92.706Z" fill="#1C2844"/>
<path d="M358.429 128.408L336.425 133.62C333.483 128.265 330.126 123.144 326.369 118.346H346.492C349.123 118.346 351.264 116.203 351.264 113.57V12.5607C351.264 9.92689 349.123 7.78427 346.492 7.78427H273.588C270.956 7.78427 268.815 9.92689 268.815 12.5607V74.756H258.937C252.265 71.8582 245.578 68.7834 239.246 65.2257C232.412 61.3865 227.643 56.2426 223.543 50.4913V5.62911C223.543 3.17826 221.551 1.18433 219.102 1.18433H151.808C149.359 1.18433 147.367 3.17826 147.367 5.62911V21.4486C146.01 22.0534 144.679 22.6581 143.336 23.2629C133.855 27.5415 124.913 31.5653 116.669 33.4757C110.98 34.7946 105.09 36.1529 99.1599 37.7008C80.9111 42.4504 62.2324 48.9226 47.157 61.1393C42.4908 64.9066 38.1603 69.2796 34.1938 74.1771C24.2354 75.0517 16.658 83.4234 16.658 93.3771C16.658 96.1488 17.25 98.7725 18.2986 101.154C17.7067 102.553 17.1423 103.967 16.6038 105.406C15.8908 107.316 15.2054 109.254 14.5867 111.205H14.5734C13.726 111.676 12.8786 112.187 12.0587 112.725C11.8433 112.86 11.7765 113.156 11.9243 113.371C12.0186 113.505 12.1664 113.586 12.3142 113.586C12.4077 113.586 12.4887 113.56 12.5696 113.505C13.094 113.169 13.6324 112.846 14.1701 112.523C6.70714 136.54 6.182 162.71 12.7583 186.997C19.8047 212.978 34.9744 236.7 55.5759 254.016V254.029C55.5892 254.029 55.5892 254.043 55.5892 254.043C55.843 254.297 63.0297 259.994 63.3085 260.218C71.9487 267.231 72.0622 268.407 73.3404 269.718C73.7712 270.58 78.404 274.645 80.7232 290.411C82.2586 299.928 86.9948 308.327 93.1896 314.711C93.2197 314.772 94.4996 316.048 94.548 316.097C103.137 324.697 116.001 331.598 131.946 333.939C131.893 334.584 131.865 335.217 131.865 335.796C131.767 336.116 131.884 341.047 133.668 344.124C133.762 344.272 133.856 344.42 133.95 344.555C133.99 344.608 134.031 344.663 134.058 344.716H117.355C117.086 344.716 116.884 344.932 116.884 345.187C116.884 345.443 117.086 345.658 117.355 345.658H227.345C227.613 345.658 227.815 345.443 227.815 345.187C227.815 344.932 227.614 344.716 227.345 344.716H211.53C212.586 343.735 213.014 342.246 212.364 340.814C211.907 339.792 209.89 338.164 208.881 337.477H208.868C203.825 333.992 195.608 331.005 192.69 330.023C192.301 329.888 191.991 329.646 191.763 329.283C191.761 329.281 191.761 329.28 191.76 329.278C231.937 320.997 262.477 309.308 287.327 292.72C320.995 270.246 343.531 237.868 349.156 203.887C352.447 184.002 349.527 163.303 341.72 144.637L342.23 144.033L342.231 144.032C346.025 144.808 346.373 144.901 346.509 144.901C346.654 144.901 346.791 144.835 346.882 144.718L358.894 129.177C359.161 128.89 358.894 128.298 358.431 128.406L358.429 128.408ZM335.369 150.844L336.996 142.96L341.178 143.821L335.369 150.844ZM336.377 141.991C336.377 142.004 336.364 142.004 336.364 142.004C336.256 142.072 336.188 142.18 336.162 142.3L334.319 151.301L328.214 140.766L354.168 131.011L336.377 141.991ZM327.476 140.039L319.946 138.491L351.462 131.026L327.476 140.039H327.476ZM269.755 12.5607C269.755 10.4465 271.474 8.72652 273.587 8.72652H346.491C348.604 8.72652 350.323 10.4465 350.323 12.5607V113.57C350.323 115.685 348.604 117.404 346.491 117.404H292.968V80.2859C292.968 77.2319 290.493 74.756 287.441 74.756H269.755V12.5607ZM201.685 203.696C199.157 203.696 197.099 201.638 197.099 199.094V111.906C199.021 110.897 200.77 109.699 202.182 108.447C203.433 107.357 205.168 105.433 205.49 103.698C205.732 102.446 205.342 101.37 204.347 100.576C205.221 98.8135 204.455 97.3742 202.625 96.7009C202.854 94.7504 201.67 93.6603 199.774 93.4047L200.554 92.4491L207.237 85.6813L207.358 85.5067C208.582 83.704 208.703 79.9634 206.538 80.3669C206.148 80.4604 201.24 83.6096 197.098 86.5425V80.2859C197.098 77.7565 199.155 75.6974 201.684 75.6974H287.44C289.968 75.6974 292.026 77.7556 292.026 80.2859V199.094C292.026 201.638 289.968 203.696 287.44 203.696H201.684H201.685ZM167.298 309.601C172.998 311.678 179.088 312.193 185.116 311.807C184.982 312.776 184.848 313.69 184.713 314.565C184.646 315.036 184.377 315.426 183.92 315.749C180.249 318.198 168.415 315.897 164.407 315.184C163.546 315.009 162.888 314.296 162.767 313.461L161.018 270.136C161.22 259.722 160.978 249.375 160.023 240.536H167.272C167.527 240.536 167.743 240.32 167.743 240.064C167.743 239.795 167.527 239.593 167.272 239.593H159.916C159.324 234.427 158.476 229.812 157.333 226.044C155.881 221.349 155.142 218.604 150.34 214.769C153.998 213.491 156.271 205.929 157.091 202.148C162.86 204.099 168.051 206.211 171.924 208.472C178.151 212.105 181.956 215.684 183.26 219.102C183.758 220.434 184.256 221.873 184.753 223.501C190.925 243.684 188.236 288.691 185.251 310.852C179.579 311.309 172.971 310.7 167.621 308.726C167.379 308.632 167.096 308.753 167.015 308.995C166.921 309.251 167.042 309.52 167.298 309.601H167.298ZM139.031 242.339H131.003C120.003 241.895 105.008 241.895 94.0078 242.016H93.8325C89.8251 242.016 85.9654 240.348 83.222 237.414C80.4252 234.44 78.9992 230.404 79.3081 226.327L80.2632 213.612C86.0406 217.734 96.2779 220.483 101.538 215.94C105.814 212.267 107.952 205.634 109.108 200.091C118.508 202.028 131.526 205.365 140.227 209.522C142.688 212.712 145.579 214.716 149.021 214.958H149.075C152.114 217.326 154.064 219.653 154.925 221.913C155.436 223.246 155.933 224.739 156.431 226.313C157.547 229.986 158.38 234.48 158.959 239.513C158.972 239.567 158.986 239.621 158.986 239.688C158.851 239.756 158.77 239.904 158.77 240.065C158.77 240.267 158.905 240.442 159.079 240.495C160.048 249.416 160.29 259.911 160.088 270.446C159.9 279.798 159.362 289.176 158.662 297.518C158.636 297.841 158.609 298.15 158.581 298.473C158.084 304.192 157.505 309.413 156.928 313.745C151.159 313.651 145.524 313.126 140.01 311.471C139.768 311.404 139.499 311.539 139.432 311.794C139.351 312.036 139.499 312.305 139.741 312.373C145.133 313.974 151.346 314.674 156.792 314.674C156.658 315.629 156.523 316.53 156.389 317.392C155.664 321.644 140.373 318.777 136.204 318.024C136.164 318.011 136.123 318.011 136.083 317.997C135.209 317.823 134.55 317.123 134.443 316.288L131.484 243.281H139.028C139.189 243.281 139.337 243.2 139.418 243.066C139.471 242.998 139.499 242.904 139.499 242.81C139.499 242.554 139.283 242.339 139.028 242.339H139.031ZM85.4019 242.123C85.0254 241.303 84.6488 240.482 84.299 239.662C85.6707 240.738 87.2169 241.572 88.8441 242.123H85.4019ZM77.4672 109.161C77.8304 108.528 78.2069 107.923 78.5968 107.371C81.2058 103.658 94.169 99.8635 98.5128 98.7876C98.5796 98.9221 102.332 106.739 103.945 110.991C104.645 112.834 105.304 115.015 105.922 117.422L101.458 116.924C99.9112 116.749 98.6072 117.933 98.4728 119.306C98.4577 119.44 94.4929 155.026 94.4653 155.271L93.1746 154.867L92.6102 138.99C92.5969 138.735 92.4358 138.506 92.1127 138.546C91.8572 138.546 91.656 138.775 91.6693 139.03L92.2204 154.558L84.1112 151.88C83.8557 151.799 83.6002 151.934 83.5193 152.176C83.4383 152.432 83.5727 152.687 83.8148 152.782C96.6168 156.98 94.8686 156.401 121.55 164.81C118.497 165.954 117.192 169.17 116.95 172.507C116.775 174.512 116.964 177.781 117.69 179.423C117.73 179.531 117.784 179.624 117.824 179.718C117.824 179.759 117.851 179.786 117.864 179.813C108.155 179.759 96.6435 177.916 92.0717 176.718C80.8026 174.215 72.5323 170.838 71.0529 169.223C70.7974 169.035 70.2464 167.919 70.1119 167.555C70.1119 167.555 70.0986 167.542 70.0986 167.529C67.503 161.205 68.3904 146.04 70.6496 132.599C70.6496 132.559 70.663 132.518 70.663 132.478C74.1219 112.486 77.276 109.753 77.4672 109.161ZM110.011 70.1141C112.983 66.7234 109.473 63.3195 108.451 62.4583C108.29 62.3104 108.196 62.2427 108.196 62.2427C108.424 62.3104 108.639 62.3906 108.868 62.4583C115.901 64.6376 124.252 65.8489 130.519 61.9195C130.721 63.1574 130.895 64.5165 131.03 65.9424C131.285 68.6472 131.433 71.621 131.433 74.5672C131.433 83.9187 126.309 89.9055 118.066 90.1611H118.052C113.789 90.0943 111.019 86.7162 110.993 86.6761C110.831 86.474 110.536 86.4473 110.334 86.6085C110.133 86.7697 110.092 87.0662 110.254 87.2675C110.375 87.4154 113.132 90.8194 117.596 91.0758V107.599L117.583 107.585C117.583 107.585 117.57 107.571 117.556 107.559H117.53C117.516 107.544 117.503 107.532 117.476 107.505C117.45 107.492 117.423 107.465 117.409 107.465C117.395 107.452 117.369 107.425 117.355 107.411C117.275 107.357 117.221 107.316 117.181 107.276H117.173C117.151 107.259 117.131 107.244 117.113 107.23C117.131 107.244 117.149 107.258 117.165 107.27C117.167 107.271 117.171 107.274 117.173 107.275H117.167C117.141 107.261 117.127 107.249 117.113 107.234C117.1 107.221 117.086 107.208 117.086 107.208L117.073 107.194C115.957 106.346 112.621 103.804 103.88 97.1704C103.867 84.5769 103.867 80.3243 103.867 79.0872V78.6428C103.773 78.1182 103.692 77.5669 103.651 77.0013C104.297 77.3238 105.023 77.4992 105.79 77.4992C106.058 77.4992 106.261 77.2971 106.261 77.0281C106.261 76.7591 106.059 76.557 105.79 76.557C104.956 76.557 104.189 76.3013 103.557 75.8712C102.373 74.9832 101.836 73.853 101.836 72.6017C101.836 70.3279 103.705 68.6455 105.79 68.6455C107.981 68.6455 109.757 70.4215 109.757 72.6017C109.757 72.8573 109.972 73.0728 110.228 73.0728C110.483 73.0728 110.699 72.8573 110.699 72.6017C110.699 71.7003 110.443 70.8391 110.013 70.1124L110.011 70.1141ZM117.783 108.932C117.864 108.985 117.959 109.025 118.066 109.025C118.133 109.025 118.2 109.012 118.268 108.972C118.429 108.891 118.537 108.73 118.537 108.555V100.348C119.276 100.725 120.487 101.438 121.388 102.137C121.227 103.362 120.661 108.313 120.742 116.184C117.622 115.834 114.92 115.525 113.696 115.391C112.849 115.297 112.082 115.902 111.988 116.75L111.84 118.082L106.918 117.531C106.259 114.961 105.56 112.62 104.82 110.668C103.489 107.143 100.342 100.429 99.4412 98.5453C100.289 98.344 101.619 98.0742 103.287 97.8996L117.784 108.933L117.783 108.932ZM135.037 166.802C135.09 166.95 135.225 167.071 135.4 167.098C137.162 167.421 140.806 167.381 142.675 168.323C145.405 169.426 145.58 170.153 145.567 170.354C145.526 170.973 143.966 171.579 142.877 171.835C142.742 171.808 140.147 171.216 140.133 171.216C139.878 171.162 139.636 171.31 139.581 171.566C139.528 171.821 139.689 172.077 139.931 172.13C140.052 172.157 141.988 172.588 142.19 172.642L142.675 172.749L142.688 172.763C143.817 173.449 145.364 174.768 145.216 175.468C145.176 175.629 144.907 176.167 142.849 176.409C142.715 176.382 139.326 175.615 139.312 175.615C139.07 175.562 138.815 175.71 138.761 175.965C138.708 176.221 138.869 176.477 139.125 176.53C139.259 176.557 141.532 177.069 141.693 177.109L142.567 177.31C143.266 177.997 144.127 179.154 143.898 179.678C143.831 179.84 143.468 180.311 141.356 180.15H141.33C139.312 179.625 138.357 179.383 138.344 179.383C138.142 179.329 137.954 179.423 137.846 179.584V179.598C137.806 179.625 137.793 179.678 137.779 179.719C137.725 179.975 137.872 180.231 138.129 180.298H138.142C138.276 180.338 140.831 180.998 140.98 181.038C141.625 181.778 141.894 182.478 141.047 182.99C138.923 184.335 132.75 183.353 130.168 182.653C127.237 181.913 124.291 180.729 122.086 179.141C121.884 179.007 121.843 179.06 121.709 179.06C121.575 179.087 119.006 179.625 118.858 179.666C117.863 178.172 117.715 174.405 117.89 172.575C118.011 170.664 118.508 168.766 119.705 167.274C122.247 166.829 125.877 165.928 127.746 165.82C127.84 165.82 127.935 165.78 128.002 165.713C128.01 165.713 128.019 165.708 128.028 165.699C130.261 163.641 136.648 157.989 138.773 160.142C139.136 160.518 137.617 163.303 135.115 166.331C135.007 166.466 134.98 166.641 135.035 166.803L135.037 166.802ZM114.26 200.265C112.592 199.875 110.925 199.512 109.284 199.162C109.769 196.7 110.132 194.089 110.414 191.398C134.929 194.143 131.514 193.753 133.047 193.927C133.181 194.399 134.015 197.036 134.58 198.529C127.641 196.861 120.863 197.439 114.26 200.265ZM134.984 199.633C136.194 202.781 137.566 205.62 139.125 207.975C132.59 205.082 124.225 202.633 115.887 200.643C122.1 198.288 128.474 197.951 134.984 199.634V199.633ZM93.4702 188.559C92.4616 188.438 91.8154 187.536 91.9231 186.607L92.8916 177.888C103.354 180.149 110.898 180.633 119.034 180.768C119.357 180.768 119.666 180.62 119.976 180.391L121.711 180.028C124.064 181.682 127.238 182.92 130.384 183.674C132.845 184.333 137.336 184.912 139.905 184.346C139.919 184.346 139.945 184.346 139.96 184.333L139.946 184.427C139.933 184.562 139.166 191.397 139.113 191.882C139.005 192.877 138.104 193.537 137.163 193.429C122.317 191.774 111.182 190.536 93.471 188.558L93.4702 188.559ZM91.964 177.674C91.6276 180.795 91.0231 186.177 90.9822 186.514C90.8069 188.007 91.9231 189.339 93.3625 189.501C93.4969 189.514 105.425 190.847 109.446 191.29C108.638 198.906 106.742 210.208 100.933 215.227C95.2126 220.108 82.5015 215.772 77.5883 209.885C77.0732 209.296 76.7517 208.776 76.351 208.109C74.7639 205.283 72.2225 189.245 71.1196 170.475C73.8898 172.345 81.7034 175.386 91.964 177.674ZM154.254 320.122C155.693 319.759 157.091 319.019 157.321 317.539C158.087 312.641 158.867 306.089 159.512 298.648C159.821 298.701 160.131 298.769 160.44 298.822C160.467 298.822 160.494 298.836 160.521 298.836C160.75 298.836 160.952 298.674 160.992 298.446C161.032 298.19 160.871 297.948 160.615 297.894C160.279 297.827 159.93 297.773 159.593 297.705V297.692C159.983 292.996 160.333 287.964 160.589 282.797L161.826 313.542C162.001 314.821 162.955 315.856 164.219 316.099C164.515 316.152 164.838 316.22 165.188 316.287V321.253H164.395C163.723 321.374 163.171 321.898 163.01 322.558C162.768 323.514 162.283 325.518 161.812 327.846C161.261 326.998 160.548 325.935 160.172 325.451C158.827 323.715 157.186 322.087 154.255 321.562V320.123L154.254 320.122ZM151.295 213.061C150.112 214.191 148.995 214.191 147.422 213.72C144.747 212.993 142.581 211.029 140.9 208.795C137.942 204.879 135.293 198.407 134.11 194.048L137.055 194.371C138.467 194.546 139.879 193.51 140.04 191.989C140.054 191.855 140.928 184.064 140.928 184.064C141.426 183.876 141.815 183.647 142.071 183.351C142.421 182.974 142.811 182.234 142.192 181.13C143.617 181.117 144.465 180.767 144.76 180.067C145.177 179.125 144.41 177.954 143.778 177.214C145.19 176.945 145.956 176.434 146.132 175.666C146.387 174.496 145.002 173.245 143.994 172.505C145.029 172.155 146.428 171.496 146.508 170.419C146.589 169.355 145.405 168.387 142.783 167.351L143.657 159.506C150.099 172.799 156.958 188.784 156.903 196.427C156.85 200.84 154.536 210.07 151.295 213.057V213.061ZM141.882 167.045C139.69 166.439 137.861 166.466 136.369 166.291C137.996 164.247 140.577 160.614 139.449 159.483C136.813 156.806 130.586 162.08 127.83 164.597C127.722 164.691 127.614 164.799 127.506 164.892C127.157 164.919 125.879 165.081 124.468 165.363C124.252 164.784 123.916 164.556 123.62 164.475C123.607 164.462 123.593 164.462 123.58 164.462C109.371 159.961 106.613 159.118 95.3804 155.568C95.7669 152.098 93.9319 168.562 99.4145 119.374C99.5623 118.311 100.584 117.706 101.351 117.867C101.485 117.881 111.732 119.024 111.732 119.024L111.49 121.23C111.402 122.113 112.025 122.843 112.849 122.926C112.983 122.926 132.694 125.16 132.886 125.16C133.652 125.16 134.325 124.568 134.418 123.787L134.661 121.581L145.042 122.738C145.943 122.833 146.615 123.599 146.615 124.487C146.615 124.541 146.615 124.608 146.602 124.676C146.575 124.892 141.882 166.992 141.882 167.046V167.045ZM147.53 124.782C147.705 123.302 146.629 121.97 145.15 121.795L134.768 120.638L134.916 119.306C134.998 118.461 134.387 117.694 133.558 117.61C130.828 117.3 125.987 116.762 121.683 116.278C121.602 108.944 122.086 104.155 122.275 102.567C125.879 103.94 136.059 108.111 138.977 110.694C144.692 115.74 158.813 126.908 160.331 128.119L160.95 131.685C160.99 131.913 161.179 132.075 161.407 132.075H161.488C161.743 132.021 161.918 131.779 161.878 131.522L161.259 128.011L174.357 113.169L174.371 113.183C174.384 113.291 174.411 113.425 174.451 113.56C175.849 118.861 184.254 119.897 188.868 118.309C185.613 124.471 172.004 149.162 161.703 151.96C157.964 152.983 151.174 149.619 145.176 145.892L147.529 124.781L147.53 124.782ZM186.811 117.799V117.812C184.471 118.202 180.719 118 178.339 116.803H178.312C176.766 116.01 175.609 114.717 175.273 112.915C175.368 112.807 176.053 112.027 176.174 111.866H176.187V111.852C176.9 110.91 177.209 108.246 184.202 97.6298C184.202 97.6298 184.216 97.6298 184.216 97.6164C185.212 96.0961 191.034 87.2425 192.796 87.8347C193.119 88.0235 193.333 89.1136 193.333 89.5438C193.36 89.8804 193.347 90.2029 193.307 90.5395C193.226 91.2663 193.011 91.9521 192.661 92.5176C192.043 93.5534 189.743 96.4194 189.717 96.4461C189.569 96.6349 189.596 96.9306 189.784 97.0927C189.798 97.1194 191.977 99.1643 188.695 104.83C188.56 105.058 188.641 105.354 188.87 105.475C189.085 105.61 189.381 105.529 189.515 105.3C192.474 100.16 191.33 97.6039 190.698 96.7293C191.317 95.9491 192.931 93.89 193.469 93.0021C194.182 91.8309 194.288 90.5663 194.288 89.7861C194.907 89.3016 195.526 88.8304 196.158 88.3727C196.467 88.1438 196.79 87.9158 197.099 87.6869C200.232 85.4265 203.5 83.3139 206.781 81.2824C207.668 81.2824 207.319 83.9062 206.593 84.9687L199.869 91.8167L198.484 93.5125C198.444 93.5392 198.416 93.5801 198.403 93.6202C198.389 93.6336 197.811 94.7638 197.099 95.9483C196.803 96.4595 196.467 96.9707 196.158 97.4285C195.969 97.7108 195.794 97.9531 195.62 98.1686C195.567 98.1953 195.526 98.2488 195.499 98.3164C195.499 98.3298 195.486 98.3432 195.486 98.3565C195.338 98.7199 194.598 100.55 195.284 101.679C195.526 102.083 195.863 102.272 196.159 102.366C196.454 102.461 196.71 102.461 196.777 102.487C196.562 103.227 196.361 104.331 196.817 105.098C196.885 105.205 196.978 105.327 197.099 105.434C197.355 105.663 197.718 105.864 198.297 105.905H198.35C198.619 105.905 198.942 105.784 199.305 105.555C199.144 106.417 199.09 107.493 199.547 108.207C199.722 108.476 199.964 108.678 200.26 108.799C199.319 109.512 198.257 110.212 197.1 110.831C196.791 111.018 196.482 111.181 196.159 111.328C194.102 112.378 191.829 113.212 189.53 113.656C189.395 113.683 189.287 113.764 189.221 113.872C189.14 114.006 186.814 117.801 186.814 117.801L186.811 117.799ZM203.594 99.9437C203.5 99.957 203.406 100.011 203.338 100.092C202.196 101.544 200.864 103.024 199.842 103.967C199.708 104.034 198.82 104.962 198.363 104.962C197.824 104.936 197.676 104.693 197.623 104.612C197.246 103.967 197.703 102.567 197.905 102.123C197.918 102.096 197.932 102.07 197.918 102.029C199.398 101.06 201.347 98.7324 202.276 97.5747H202.289C203.459 98.0458 204.077 98.7725 203.593 99.9428L203.594 99.9437ZM202.464 106.874C202.383 106.874 202.585 106.82 201.563 107.735C201.456 107.843 201.174 108.03 201.012 108.03C200.595 108.004 200.433 107.829 200.34 107.694C199.923 107.035 200.205 105.528 200.501 104.64C201.657 103.604 202.894 102.151 203.647 101.223C205.651 102.689 204.185 105.111 202.463 106.874H202.464ZM201.644 96.8496V96.863C200.004 98.9354 198 101.02 197.099 101.451C196.991 101.518 196.897 101.545 196.816 101.545C196.426 101.518 196.238 101.384 196.158 101.276C196.118 101.236 196.104 101.208 196.09 101.182C195.808 100.738 195.969 99.9036 196.158 99.298C196.225 99.0824 196.292 98.8945 196.346 98.76C196.575 98.4777 196.844 98.1143 197.099 97.7242C197.92 96.4996 198.767 94.9392 199.103 94.3202C199.614 94.3202 200.757 94.428 201.336 95.0871C201.685 95.5039 201.792 96.0828 201.644 96.8496ZM238.785 66.0468C244.53 69.2746 250.556 72.098 256.595 74.756H223.542V52.1069C227.537 57.5198 232.218 62.3572 238.785 66.0468ZM148.306 5.62911C148.306 3.69783 149.876 2.12658 151.807 2.12658H219.101C221.031 2.12658 222.602 3.69783 222.602 5.62911V74.756H201.685C198.632 74.756 196.158 77.2319 196.158 80.2859V87.2016C195.445 87.7261 194.773 88.224 194.167 88.6818C193.939 87.5248 193.388 86.6235 192.231 86.9058C189.824 87.5382 184.27 95.3694 180.128 102.365C180.128 102.366 180.126 102.367 180.126 102.369H151.807C149.877 102.369 148.306 100.797 148.306 98.8661V5.62911ZM17.5981 93.378C17.5981 82.5488 26.7826 74.5321 36.6542 75.0517C43.5929 75.334 49.6316 79.7203 52.4685 85.7222C55.2987 91.6397 54.65 98.6623 50.8279 103.967C50.7603 104.074 50.7336 104.196 50.7478 104.317L51.2187 107.196L51.394 108.245L51.9049 111.407L45.5849 109.12C45.4505 109.066 45.3027 109.08 45.1817 109.146C42.3848 110.801 39.1839 111.676 35.9162 111.676C28.5876 111.676 22.2534 107.357 19.3347 101.127C19.1468 100.737 18.9715 100.334 18.8237 99.9295C18.0306 97.898 17.5998 95.691 17.5998 93.3771L17.5981 93.378ZM13.6709 186.756C7.04109 162.322 7.67309 135.963 15.3657 111.852C15.5811 111.718 15.7956 111.61 16.011 111.489C16.2398 111.368 16.3341 111.072 16.2122 110.843C16.1187 110.682 15.9434 110.601 15.7823 110.601C16.3199 108.959 16.8851 107.345 17.4904 105.73C17.9337 104.56 18.3779 103.416 18.8479 102.272C19.8698 104.223 21.2148 105.986 22.8286 107.466C21.6181 107.883 20.4083 108.354 19.2245 108.878C18.9957 108.972 18.888 109.255 18.9823 109.497C19.0633 109.672 19.2378 109.78 19.4131 109.78C19.4808 109.78 19.5476 109.766 19.601 109.74C20.8383 109.202 22.0889 108.717 23.3262 108.287C23.4206 108.26 23.5007 108.206 23.555 108.126C26.9037 110.937 31.2066 112.62 35.9137 112.62C39.2757 112.62 42.5702 111.745 45.4613 110.077L51.7279 112.351C52.0101 112.459 52.3199 112.405 52.5611 112.216C52.7899 112.014 52.8976 111.718 52.8567 111.423L52.4 108.61C53.1122 108.879 53.8118 109.162 54.4972 109.458C54.5648 109.485 54.6316 109.498 54.6859 109.498C54.8738 109.498 55.0491 109.39 55.1167 109.216C55.2244 108.987 55.1167 108.705 54.8746 108.597C54.0138 108.22 53.1264 107.857 52.2255 107.533L51.7146 104.358C55.5525 98.9029 56.2004 91.8151 53.5571 85.8166C50.6526 79.2233 44.1305 74.4068 36.6801 74.1111C36.2768 74.0977 35.8736 74.0977 35.4837 74.1111C39.2357 69.536 43.3508 65.4462 47.7481 61.8802C62.6481 49.798 81.1657 43.3793 99.2801 38.6572C105.238 37.096 111.141 35.7369 116.87 34.4054C125.221 32.4683 134.204 28.4177 143.711 24.1258C144.934 23.5753 146.143 23.0374 147.366 22.4861V98.8678C147.366 101.319 149.358 103.313 151.807 103.313H179.561C177.814 106.326 176.363 109.122 175.61 111.005C175.206 111.086 174.776 111.261 174.52 111.584L174.493 111.598L160.71 127.22C158.383 125.376 145.083 114.841 139.61 109.983C136.073 106.862 123.446 101.991 122.155 101.507C122.146 101.498 122.137 101.493 122.128 101.493C120.972 100.605 119.761 99.8793 118.537 99.2871V91.0925C127.091 90.608 132.375 84.3113 132.375 74.5697C132.375 72.2283 132.281 69.8601 132.12 67.6131C136.504 64.6527 135.2 58.7728 135.106 58.4236V58.4103C142.973 50.62 137.862 42.062 133.007 41.3085C129.161 40.7029 120.77 48.5876 120.77 48.5876C120.77 48.5876 117.179 36.7602 110.859 38.4826C103.96 40.3797 104.835 51.7894 104.835 51.7894C101.163 51.4528 99.0113 52.5563 97.9226 54.4942C97.9226 54.4942 97.9226 54.5076 97.9092 54.5076C97.4651 55.2878 97.1829 56.2033 97.0485 57.2258V57.2391C96.161 63.7513 100.948 74.1654 102.804 77.906C102.844 78.2017 102.885 78.4707 102.939 78.7397V97.0117C97.546 97.5763 80.9378 102.38 77.8312 106.834C77.4146 107.427 77.0239 108.059 76.6474 108.731L76.634 108.745C74.9392 111.14 73.1643 116.266 71.6581 122.617C71.335 122.133 70.9994 121.648 70.6496 121.191C70.5018 120.976 70.2063 120.936 69.9909 121.083C69.7897 121.245 69.7488 121.541 69.8965 121.743C70.4075 122.429 70.8917 123.156 71.3626 123.883C67.6374 140.136 65.6069 163.333 70.1662 169.644C70.1796 169.657 70.1929 169.684 70.2063 169.697C71.295 189.032 73.8906 205.676 75.5178 208.582C75.8409 209.161 76.2174 209.725 76.6607 210.277C76.6874 210.91 76.7142 211.542 76.7542 212.161C76.7676 212.403 76.9696 212.605 77.2251 212.605H77.2518C77.5073 212.592 77.7085 212.363 77.6951 212.108C77.6818 211.865 77.6684 211.623 77.6551 211.381C78.1794 211.919 78.7579 212.43 79.3766 212.928L78.3681 226.262C78.045 230.595 79.5519 234.9 82.5232 238.062C82.8597 238.412 83.1686 238.722 83.5318 239.044C83.2897 239.152 83.1686 239.421 83.2763 239.663C83.6261 240.485 83.9893 241.318 84.3658 242.125H55.9232C55.6677 242.125 55.4523 242.341 55.4523 242.596V252.701C35.361 235.559 20.5686 212.255 13.67 186.758L13.6709 186.756ZM79.2155 279.192C79.2155 279.179 79.2021 279.152 79.2021 279.139C79.0543 278.708 78.9199 278.277 78.7713 277.86C74.7722 266.347 65.809 261.424 56.3941 253.493V243.066H84.8091C84.8492 243.159 84.8901 243.24 84.9302 243.335V301.028C80.8376 291.99 81.8745 287.187 79.2146 279.192H79.2155ZM115.887 328.747C103.636 323.802 92.0308 314.892 85.8719 302.954V243.066C123.257 243.173 120.11 242.877 130.559 243.267L133.503 316.368C133.679 317.646 134.633 318.669 135.897 318.924C135.991 318.938 136.099 318.965 136.206 318.992V321.253H135.399C134.741 321.374 134.175 321.898 134.028 322.558C133.611 324.172 132.481 328.882 132.037 332.959C131.311 332.851 130.585 332.743 129.858 332.622C125.078 331.73 120.569 330.666 115.887 328.747H115.887ZM132.846 337.399C132.819 336.901 132.791 336.43 132.791 336.04C132.939 335.623 132.428 332.447 134.943 322.786C135.01 322.477 135.266 322.234 135.48 322.181C140.12 322.222 150.663 322.315 151.591 322.315H151.659C155.33 322.167 157.454 323.472 159.418 326.016C160.05 326.85 161.126 328.518 161.569 329.164C162.699 330.9 162.618 330.617 165.268 331.572C169.37 333.12 174.104 334.99 178.017 337.399H132.846ZM192.378 330.914C197.407 332.636 203.043 334.977 207.009 337.399H179.764C176.039 334.843 171.197 332.865 167.271 331.317H167.217C167.043 331.251 165.16 330.511 163.694 330.026C163.238 329.865 162.874 329.555 162.632 329.07C162.619 329.057 162.606 329.03 162.565 328.976C163.049 326.285 163.654 323.85 163.923 322.787C164.004 322.478 164.259 322.235 164.474 322.181C181.459 322.329 182.386 322.276 183.247 322.505C187.039 323.258 188.505 326.151 190.805 329.542C191.142 330.201 191.679 330.672 192.378 330.914ZM348.223 203.737C342.642 237.461 320.255 269.611 286.802 291.94C261.979 308.51 231.433 320.174 191.194 328.436C190.629 327.574 189.622 326.056 189.151 325.451C187.834 323.715 186.166 322.1 183.248 321.562V317.123C184.445 316.678 185.454 315.966 185.642 314.714C188.829 294.235 192.231 244.761 185.655 223.22C185.144 221.579 184.646 220.112 184.135 218.766C182.387 214.151 176.658 210.128 172.395 207.652C168.455 205.351 163.157 203.198 157.28 201.234C157.643 199.364 157.831 197.669 157.844 196.431C157.898 188.264 150.516 171.31 143.858 157.708L145.056 146.943C151.134 150.657 157.993 153.954 161.959 152.863C174.076 149.567 189.769 118.674 190.442 117.355C190.482 117.262 190.496 117.167 190.482 117.073C190.617 116.414 189.985 115.687 189.474 115.257L189.917 114.53C192.015 114.099 194.153 113.346 196.157 112.364V199.096C196.157 202.15 198.631 204.639 201.684 204.639H274.437C274.369 204.813 274.423 205.016 274.558 205.15C275.485 205.971 276.333 206.886 277.086 207.855L277.233 208.043C277.327 208.164 277.462 208.231 277.61 208.231C277.704 208.231 277.811 208.191 277.892 208.123C278.093 207.975 278.134 207.679 277.987 207.464L277.825 207.275C277.099 206.334 276.293 205.458 275.405 204.638H287.441C290.493 204.638 292.968 202.149 292.968 199.095V118.347H325.175C329.032 123.204 332.477 128.398 335.484 133.843L317.657 138.066C317.443 138.117 317.292 138.31 317.295 138.532C317.298 138.752 317.454 138.941 317.671 138.985L327.233 140.952V140.956L334.091 152.81C334.405 153.229 334.744 153.104 334.884 152.918C335.386 152.31 341.423 145.005 341.037 145.471C348.631 163.854 351.458 184.189 348.223 203.738V203.737ZM346.314 143.913L342.149 143.057L342.147 143.054C342.012 143.027 337.661 142.134 337.884 142.18L356.584 130.625L346.314 143.913Z" fill="#1C2844"/>
</svg>
